<svg xmlns="http://www.w3.org/2000/svg" width="42.899" height="42.898" viewBox="0 0 42.899 42.898">
  <path id="twitter" d="M555.69,1165.64a21.449,21.449,0,1,0,21.449,21.449A21.449,21.449,0,0,0,555.69,1165.64Zm9.794,16.724q.014.317.014.632a13.913,13.913,0,0,1-13.814,14.011h-.194a13.934,13.934,0,0,1-7.547-2.211,9.957,9.957,0,0,0,7.289-2.039,4.928,4.928,0,0,1-4.6-3.42,4.9,4.9,0,0,0,2.224-.085,4.928,4.928,0,0,1-3.95-4.826v-.063a4.884,4.884,0,0,0,2.23.615,4.928,4.928,0,0,1-1.522-6.576,13.976,13.976,0,0,0,10.148,5.144,4.928,4.928,0,0,1,8.39-4.49,9.877,9.877,0,0,0,3.126-1.2,4.942,4.942,0,0,1-2.166,2.727,9.818,9.818,0,0,0,2.827-.776A10.006,10.006,0,0,1,565.484,1182.365Z" transform="translate(-534.241 -1165.64)" fill="#6a83be"/>
</svg>
