<svg id="Grupo_38" data-name="Grupo 38" xmlns="http://www.w3.org/2000/svg" width="42.899" height="42.898" viewBox="0 0 42.899 42.898">
  <path id="Trazado_412" data-name="Trazado 412" d="M888.16,1206.463c-.377-.188-2.211-1.094-2.558-1.215a.716.716,0,0,0-.921.279,15.557,15.557,0,0,1-1,1.329.812.812,0,0,1-.905.143,9.439,9.439,0,0,1-3.01-1.857,11.379,11.379,0,0,1-2.083-2.589c-.218-.377-.023-.6.151-.8.19-.234.369-.4.558-.62a2.214,2.214,0,0,0,.416-.589.766.766,0,0,0-.055-.695c-.09-.189-.844-2.031-1.154-2.778-.249-.6-.438-.618-.815-.634-.128-.006-.271-.015-.43-.015a1.865,1.865,0,0,0-1.313.461,4.1,4.1,0,0,0-1.312,3.124,7.332,7.332,0,0,0,1.524,3.872c.19.249,2.619,4.082,6.392,5.645,2.949,1.223,3.826,1.109,4.5.966a3.624,3.624,0,0,0,2.519-1.812,3.2,3.2,0,0,0,.22-1.781C888.786,1206.742,888.537,1206.653,888.16,1206.463Z" transform="translate(-859.735 -1181.943)" fill="#9db3e8"/>
  <path id="Trazado_413" data-name="Trazado 413" d="M865.436,1165.64a21.449,21.449,0,1,0,21.449,21.449A21.449,21.449,0,0,0,865.436,1165.64Zm0,34.287a12.729,12.729,0,0,1-7.062-2.121l-4.934,1.577,1.6-4.769a12.83,12.83,0,0,1,10.391-20.362h.006a12.838,12.838,0,0,1,0,25.675Z" transform="translate(-843.987 -1165.64)" fill="#9db3e8"/>
</svg>
