<svg id="Grupo_36" data-name="Grupo 36" xmlns="http://www.w3.org/2000/svg" width="42.898" height="42.899" viewBox="0 0 42.898 42.899">
  <path id="Trazado_408" data-name="Trazado 408" d="M728.466,1211.053l7.434-4.282-7.434-4.282Z" transform="translate(-709.864 -1185.159)" fill="#9db3e8"/>
  <path id="Trazado_409" data-name="Trazado 409" d="M710.374,1165.652a21.449,21.449,0,1,0,21.449,21.449A21.449,21.449,0,0,0,710.374,1165.652Zm14.281,21.636a37.707,37.707,0,0,1-.588,6.87,3.578,3.578,0,0,1-2.518,2.517c-2.235.589-11.175.589-11.175.589s-8.917,0-11.175-.612a3.578,3.578,0,0,1-2.517-2.517,40.42,40.42,0,0,1,0-13.74,3.65,3.65,0,0,1,2.517-2.541c2.235-.588,11.175-.588,11.175-.588s8.941,0,11.175.611a3.577,3.577,0,0,1,2.517,2.517A35.789,35.789,0,0,1,724.655,1187.288Z" transform="translate(-688.925 -1165.652)" fill="#9db3e8"/>
</svg>
