<svg xmlns="http://www.w3.org/2000/svg" viewBox="0 0 158.82 161.53"><defs><style>.cls-1{fill:#d2d2d2;}</style></defs><title>Escudo_2</title><g id="Capa_2" data-name="Capa 2"><g id="Layer_11" data-name="Layer 11"><polygon class="cls-1" points="79.08 0 81.3 4.5 86.27 5.22 82.67 8.72 83.52 13.67 79.08 11.33 74.63 13.67 75.48 8.72 71.89 5.22 76.86 4.5 79.08 0"/><polygon class="cls-1" points="111.74 8.34 113.96 12.84 118.93 13.56 115.33 17.06 116.18 22.01 111.74 19.67 107.29 22.01 108.14 17.06 104.55 13.56 109.51 12.84 111.74 8.34"/><polygon class="cls-1" points="136.78 28.61 139 33.1 143.97 33.83 140.37 37.33 141.22 42.27 136.78 39.94 132.34 42.27 133.18 37.33 129.59 33.83 134.56 33.1 136.78 28.61"/><polygon class="cls-1" points="151.08 57.63 153.31 62.13 158.27 62.85 154.68 66.35 155.53 71.29 151.08 68.96 146.64 71.29 147.49 66.35 143.89 62.85 148.86 62.13 151.08 57.63"/><polygon class="cls-1" points="151.63 91.3 153.85 95.8 158.82 96.53 155.23 100.03 156.08 104.97 151.63 102.64 147.19 104.97 148.04 100.03 144.44 96.53 149.41 95.8 151.63 91.3"/><polygon class="cls-1" points="136.81 120.46 139.03 124.96 144 125.68 140.4 129.18 141.25 134.13 136.81 131.79 132.36 134.13 133.21 129.18 129.62 125.68 134.59 124.96 136.81 120.46"/><polygon class="cls-1" points="111.89 140.74 114.11 145.24 119.08 145.97 115.49 149.47 116.34 154.41 111.89 152.08 107.45 154.41 108.3 149.47 104.7 145.97 109.67 145.24 111.89 140.74"/><polygon class="cls-1" points="79.06 147.87 81.29 152.37 86.25 153.09 82.66 156.59 83.51 161.53 79.06 159.2 74.62 161.53 75.47 156.59 71.87 153.09 76.84 152.37 79.06 147.87"/><polygon class="cls-1" points="46.96 140.76 49.18 145.26 54.15 145.99 50.56 149.49 51.41 154.43 46.96 152.1 42.52 154.43 43.37 149.49 39.77 145.99 44.74 145.26 46.96 140.76"/><polygon class="cls-1" points="22.03 120.5 24.26 125 29.22 125.72 25.63 129.22 26.48 134.16 22.03 131.83 17.59 134.16 18.44 129.22 14.84 125.72 19.81 125 22.03 120.5"/><polygon class="cls-1" points="7.19 91.52 9.41 96.02 14.38 96.74 10.79 100.25 11.63 105.19 7.19 102.86 2.75 105.19 3.6 100.25 0 96.74 4.97 96.02 7.19 91.52"/><polygon class="cls-1" points="7.19 57.63 9.41 62.13 14.38 62.85 10.79 66.35 11.63 71.29 7.19 68.96 2.75 71.29 3.6 66.35 0 62.85 4.97 62.13 7.19 57.63"/><polygon class="cls-1" points="21.28 28.64 23.5 33.14 28.47 33.86 24.88 37.37 25.72 42.31 21.28 39.98 16.84 42.31 17.68 37.37 14.09 33.86 19.06 33.14 21.28 28.64"/><polygon class="cls-1" points="46.92 8.36 49.14 12.86 54.11 13.58 50.52 17.08 51.36 22.03 46.92 19.69 42.48 22.03 43.33 17.08 39.73 13.58 44.7 12.86 46.92 8.36"/><path class="cls-1" d="M117.16,92.45l-.08,0a.62.62,0,0,0,0,1.24l.08,0,.07,0a.62.62,0,0,0,0-1.24Z"/><path class="cls-1" d="M124,83.8a4.32,4.32,0,0,0-1.5.56,2.08,2.08,0,0,1-.87.36,2.23,2.23,0,0,0,.23-1.18c-.11-1.13-.11-3-.11-3s-.38,1.13-.91,1.39-1.59.65-1.77,1-.94.38-1.24,1.5a4.12,4.12,0,0,1-.45,1.4c-.06.11-.15.24-.24.38a25.66,25.66,0,0,0,.62-4.94c0-.26,0-.51,0-.77a8.12,8.12,0,0,0,.64-.62c.24-.39,3.12-1.37,3.52-2.15s.61-1.29.8-1.61a5.59,5.59,0,0,0,.46-2.09,19.32,19.32,0,0,0-.32-2.87,3.9,3.9,0,0,0-1.18.91,1.67,1.67,0,0,1-.32.33,2.3,2.3,0,0,0-.14-.81c-.4-1-1-2.3-1-2.3s-.53.83-.83,1.34c-.48,1-1,1-1,1.42s-.64.64-.85,1.42a4.76,4.76,0,0,0-.15.62c-.21-1.66-.49-3.17-.8-4.52.14-.44.29-1.39.68-1.7a2.26,2.26,0,0,0,.64-1.88,7.66,7.66,0,0,0-.26-1.77c-.08-.45-1.51-2.41-1.4-3,0,0-.7,1.58-1,2.2a12,12,0,0,0-2.36-1.8c-.35-.61-.72-1.23-1.09-1.84,0-.18.06-.57.12-1a4.57,4.57,0,0,0,.11-2,13.61,13.61,0,0,1-.75-1.39,2.71,2.71,0,0,0-.76-1.39c-.45-.49-1.12-1.13-1.12-1.13s-.18.83-.36,1.5a2.72,2.72,0,0,0-.47-.19,6.29,6.29,0,0,1-.61-.3c-.32-.44-.64-.86-.93-1.22a.62.62,0,0,0,.28-.51.62.62,0,1,0-.62.62.59.59,0,0,0,.33-.11c.09.13.33.51.69,1.09l-.72-.42c-.25-.16-.38,1.68.18,2.7l-.26-.07a6.59,6.59,0,0,0-2.15-.19c.27,0,.94.72,1,1.1a3.19,3.19,0,0,0,1.13,1.39,6.68,6.68,0,0,1,1.39,1,4.3,4.3,0,0,0,2.36.45,1.44,1.44,0,0,0,.83.21c.34.59.69,1.2,1,1.8a6.24,6.24,0,0,0-.21,1.61h0c-.46-.08-2-.45-2-.45a5.58,5.58,0,0,0,.81,2.33.56.56,0,0,0-.17.32.71.71,0,0,0,.13.56,1.91,1.91,0,0,0,.88.74L104.2,72.4a105.07,105.07,0,0,0-.75-19.77c.93-.35.68-.77.68-.77l-.36-.9a.82.82,0,0,0,.3.07.58.58,0,0,0,.44-.19.66.66,0,0,0-.11-.93,1.79,1.79,0,0,0-.59-.43l1.1-.15.62-2.65h0l-2.57.88-.06,1.1a1.87,1.87,0,0,0-.46-.54.67.67,0,0,0-1,0,.68.68,0,0,0,.1.94,2.2,2.2,0,0,0,1,.49.16.16,0,0,0,0,.07L89.72,63.77,81.18,49.51c.53-3.46-1.33-8.71-1.4-8.92a5.2,5.2,0,0,0,.15-1.42,1.21,1.21,0,0,0,.81-.81h0v0h0a11.74,11.74,0,0,0-1-1.1,2.48,2.48,0,0,0,.46,0h.06a.63.63,0,1,0,0-1.25h0a2,2,0,0,0-.72.09l.7-.85L79,32.87h0l-1.31,2.38.71.85a2.1,2.1,0,0,0-.71-.08.82.82,0,0,0-.55.21.6.6,0,0,0-.17.41.58.58,0,0,0,.17.41.77.77,0,0,0,.54.22s0,0,.06,0l.37,0c-.21.2-.49.51-.69.74a.73.73,0,0,0-.18.22l0,.05a.78.78,0,0,0,0,.09s0,0,0,.06a1.19,1.19,0,0,0,.39.47c-1,1.82-3.39,7.09-2,12.57L68.21,63.77,55.3,49.55a2,2,0,0,0,1-.51.74.74,0,0,0,.25-.52.56.56,0,0,0-.55-.61.81.81,0,0,0-.53.2,1.89,1.89,0,0,0-.48.55L55,47.56l-2.58-.88h0L53,49.33l1.1.15a2,2,0,0,0-.59.42.79.79,0,0,0-.26.52.62.62,0,0,0,.15.42.61.61,0,0,0,.41.19h0a.82.82,0,0,0,.3-.07l-.37.9s-.25.42.68.77a106,106,0,0,0-.75,19.77L46.06,67a1.92,1.92,0,0,0,.87-.73.82.82,0,0,0,.15-.51.57.57,0,0,0-.18-.37,5.39,5.39,0,0,0,.83-2.34s-1.59.37-2,.45h0a6.3,6.3,0,0,0-.22-1.61c.34-.6.68-1.21,1-1.8a1.41,1.41,0,0,0,.82-.21,4.3,4.3,0,0,0,2.36-.45,6.73,6.73,0,0,1,1.4-1A3.17,3.17,0,0,0,52.2,57c.08-.38.76-1.1,1-1.1a6.53,6.53,0,0,0-2.14.19l-.26.07c.55-1,.42-2.86.18-2.7l-.73.42c.36-.58.61-1,.69-1.09a.65.65,0,0,0,.33.11.62.62,0,1,0,0-1.24A.61.61,0,0,0,51,52.79c-.3.36-.61.78-.94,1.22a6.44,6.44,0,0,1-.6.3,2.78,2.78,0,0,0-.48.19c-.17-.67-.35-1.5-.35-1.5s-.67.64-1.13,1.13a2.76,2.76,0,0,0-.75,1.39c-.19.56-.56.94-.75,1.39a4.56,4.56,0,0,0,.1,2c.06.41.1.8.12,1-.37.61-.73,1.23-1.08,1.84a11.47,11.47,0,0,0-2.36,1.8l-1-2.2c.11.56-1.31,2.52-1.39,3A7.1,7.1,0,0,0,40.11,66a2.26,2.26,0,0,0,.64,1.88c.39.31.55,1.26.68,1.7-.31,1.35-.58,2.86-.8,4.52a4.39,4.39,0,0,0-.14-.62c-.22-.78-.81-1-.86-1.42s-.56-.45-1.05-1.42c-.29-.51-.83-1.34-.83-1.34s-.62,1.31-1,2.3a2.29,2.29,0,0,0-.13.81,1.25,1.25,0,0,1-.32-.33,4,4,0,0,0-1.18-.91,17,17,0,0,0-.32,2.87,5.59,5.59,0,0,0,.45,2.09c.19.32.4.86.81,1.61s3.27,1.76,3.51,2.15a7.21,7.21,0,0,0,.65.62c0,.26,0,.51,0,.77a25.61,25.61,0,0,0,.61,4.94,3.5,3.5,0,0,1-.23-.38,4.27,4.27,0,0,1-.46-1.4c-.29-1.12-1-1.12-1.23-1.5s-1.21-.75-1.77-1-.91-1.39-.91-1.39,0,1.85-.11,3a2.23,2.23,0,0,0,.22,1.18,2.2,2.2,0,0,1-.87-.36,4.26,4.26,0,0,0-1.5-.56,23.84,23.84,0,0,0,.56,3,5.62,5.62,0,0,0,1.13,2c.27.3.64.75,1.29,1.4s2.35.8,4.21,1.42a2.46,2.46,0,0,1,1.31,1c.07.24.12.45.16.6.21.82.48,1.81.81,2.88a3.51,3.51,0,0,0-2.47-1c-.64-.11-3.16-.75-3.16-.75.6.44,1,1.68,1.34,2.79a8.3,8.3,0,0,0-2.93,0c.27.19,2.23,1.87,2.5,2.81a10,10,0,0,0,1.58,2.79c.3.19,1.13,1.21,1.69,1.77s2.79.27,3.54.27a7.19,7.19,0,0,1,1.71.54,18,18,0,0,0,2.36,2.47,6.42,6.42,0,0,1-2-1.35c-.37-.49,0,1.65.47,2.35a3.49,3.49,0,0,1-1.63-.47c-.62-.49-.08,1.69.59,2.3,1.44,1.29,1.31,1.49,1.54,1.58-1.21.25-2.9.66-3.42.35s.75.94,1.61,1.26c1.23.46,1.07,1.26,2.41,1.69s2.93,1,3.76.86a12.85,12.85,0,0,1,2-.51c.81-.1,2.19-1.18,3.76-1.38a50.29,50.29,0,0,0,4.55,2.51l.24.11a3.88,3.88,0,0,0-.53.07c-.56.14-2.87.65-3.43.38s.58,1.23,1.27,1.8a11.1,11.1,0,0,1-3.15.24c-.75-.17,1.5,2,2.39,2.25l.1,0a6.41,6.41,0,0,1-1.71.39c-.78-.06,2.47,2.06,3.35,1.93,2.84-.41,5.53.56,6.84,0s1.88-.77,2.47-1,.91-.75,1.29-1a3.86,3.86,0,0,1,1.35-1.1.44.44,0,0,0,.16,0,24.8,24.8,0,0,0,3,0,4.62,4.62,0,0,0-1.23.74,29.06,29.06,0,0,0-3,1,28.12,28.12,0,0,0-4.75,3.91s2.42-.19,2.79-.19,1.21-1.66,1.59-2a17.76,17.76,0,0,1,1.62-.81c-1.65,2.65.75,4.82.75,4.82-.64-.75.08-2.06.08-2.06l1.32.83c-1.65-2.83.9-4.71,1.75-5.24L78,122a1.32,1.32,0,0,0,1,.57,1.34,1.34,0,0,0,1-.53l.5.19c1,.67,3.08,2.48,1.55,5.11l1.31-.83s.73,1.31.08,2.06c0,0,2.35-2.12.81-4.73a15.94,15.94,0,0,1,1.43.72c.37.29,1.21,2,1.58,2s2.79.19,2.79.19a28.12,28.12,0,0,0-4.75-3.91,27,27,0,0,0-2.8-1,5.07,5.07,0,0,0-1.3-.8,24.66,24.66,0,0,0,3,0h.06a4.67,4.67,0,0,1,1.32,1.08c.37.27.7.8,1.29,1s1.28.51,2.46,1,4-.43,6.84,0c.89.13,4.13-2,3.36-1.93a6.34,6.34,0,0,1-1.71-.39l.1,0c.88-.24,3.14-2.42,2.39-2.25a11.06,11.06,0,0,1-3.15-.24c.69-.57,1.78-2.07,1.27-1.8S95.6,117.18,95,117a3.81,3.81,0,0,0-.54-.07l.24-.11a47.72,47.72,0,0,0,4.55-2.51c1.57.2,3,1.28,3.77,1.38a13.14,13.14,0,0,1,2,.51c.83.16,2.33-.4,3.75-.86s1.18-1.23,2.41-1.69c.86-.32,2.28-1.63,1.61-1.26-.51.31-2.2-.1-3.42-.35.23-.09.1-.29,1.54-1.58.67-.61,1.21-2.79.59-2.3a3.41,3.41,0,0,1-1.62.47c.42-.7.83-2.84.47-2.35a6.46,6.46,0,0,1-2.06,1.35,18.8,18.8,0,0,0,2.37-2.47,7.12,7.12,0,0,1,1.7-.54c.75,0,3,.29,3.54-.27s1.4-1.58,1.69-1.77a10.23,10.23,0,0,0,1.59-2.79c.26-.94,2.22-2.62,2.49-2.81a8.3,8.3,0,0,0-2.93,0c.38-1.11.74-2.35,1.35-2.79,0,0-2.52.64-3.17.75a3.5,3.5,0,0,0-2.46,1c.32-1.07.59-2.06.8-2.88l.17-.6a2.42,2.42,0,0,1,1.31-1c1.85-.62,3.54-.75,4.21-1.42s1-1.1,1.28-1.4a5.47,5.47,0,0,0,1.13-2A23.84,23.84,0,0,0,124,83.8ZM117.3,82a25.69,25.69,0,0,1-.58,3.79,3.77,3.77,0,0,0-.42-1.51c-.27-.57-.64-.57-.83-1.13s-.83-.75-1.21-1.21a8.07,8.07,0,0,0-1.12-1,10.08,10.08,0,0,0-.19,3.53,2.38,2.38,0,0,1,.14.56l-.52-.19c-.48,1.1.08,2.23.27,3.25a6.82,6.82,0,0,0,.64,1.31c.19.38.11.73.3,1s.58.28,1,.67a4.82,4.82,0,0,0,.23,1.46c-.36,1.2-.76,2.42-1.18,3.64a2.78,2.78,0,0,0-.45-1.29,4.75,4.75,0,0,1-.83-1.5c-.37-1-1.13-1-1.23-2a19,19,0,0,0-.35,2.23,5.53,5.53,0,0,0,.16,2,3.23,3.23,0,0,1-.17,1.25,3.52,3.52,0,0,0-.37-1.62,1.83,1.83,0,0,1-.18-1.13,10,10,0,0,1-1.44,1.9l-.35-.58c4.9-8.56,3.76-23.2,3.57-25.2.79-.17.65-.58.65-.58l-.15-1a.82.82,0,0,0,.25.12l.17,0a.51.51,0,0,0,.32-.1.56.56,0,0,0,.24-.44s0,0,0,0a2.93,2.93,0,0,0,1,.81c.67.18,1.23.48,1.31.75h0a43.74,43.74,0,0,1,1,5.33h0c-.75-.84-.94-2.42-2.6-3.27a4.77,4.77,0,0,1,0,1.12,6.66,6.66,0,0,0-.16,1.46,4.62,4.62,0,0,1-1.27-1.25,7.71,7.71,0,0,0,.38,3.54c.67,1.21.67,1.85,1.39,2.12a3.4,3.4,0,0,1,1.13.67,2.39,2.39,0,0,0,1.12.45.34.34,0,0,1,.25.15,5.12,5.12,0,0,0,.15.56C117.31,81.12,117.31,81.59,117.3,82Zm-65-10.08,5,3.49A16.62,16.62,0,0,0,58,80.91l-4.12,6.88C53.15,86.32,51.42,81.49,52.29,71.93Zm-7.65-4.05a1.41,1.41,0,0,1,.86-.65,1.5,1.5,0,0,1-.32,1,.48.48,0,0,1-.27.2.31.31,0,0,1-.25,0,.3.3,0,0,1-.12-.22A.6.6,0,0,1,44.64,67.88ZM60.93,56.4l3.94,4.35c-.08,1.2-.25,4.94.78,7.29l-3.59,6C61.2,72.31,59.43,67.16,60.93,56.4Zm15.39-2.81a15.35,15.35,0,0,1,5.28,0l.56.94a14.59,14.59,0,0,0-6.41,0Zm.45-.75L79,49.17l2.19,3.65A16.47,16.47,0,0,0,76.77,52.84Zm-1.51,2.52a14,14,0,0,1,7.39,0l.6,1A12.65,12.65,0,0,0,79,55.63a12.8,12.8,0,0,0-4.35.75Zm-1.2,2a12.42,12.42,0,0,1,9.77,0L99,82.65H93.44a6,6,0,0,1-.73-.51,2.14,2.14,0,0,0-.26-.19,1.61,1.61,0,0,0-1.24-.24,2.78,2.78,0,0,0-.65.23,4.56,4.56,0,0,0-.59.38s0,0-.06,0l-.28-.11a6.58,6.58,0,0,1-1.37-.89,2.63,2.63,0,0,0-.44-.3,1.82,1.82,0,0,0-.83-.2,2,2,0,0,0-.59.09,3.18,3.18,0,0,0-.77.36,5,5,0,0,0-.47.33.15.15,0,0,1-.06,0l0,0a5,5,0,0,0-.89-.46,4.32,4.32,0,0,1-.8-.41,7.55,7.55,0,0,1-1-.74,3.09,3.09,0,0,0-.37-.26,2.16,2.16,0,0,0-.89-.28,1.92,1.92,0,0,0-.63,0,3,3,0,0,0-.82.3,3.22,3.22,0,0,0-.39.25V71.33c.92-.06,1.64-.38,1.64-.77s-.67-3-1.56-3.67a1.62,1.62,0,0,0-1.84,0s-1.15.67-.56,1.61c0,0,.12.28.62.08A.66.66,0,0,0,78,68v.23c0,.32-.45.5-.47.51a8.5,8.5,0,0,0-.47,1.8c0,.39.72.71,1.66.77v8.9l-.08,0a8.77,8.77,0,0,1-1.1-.79,2.71,2.71,0,0,0-.41-.28,2.35,2.35,0,0,0-.89-.3,2.37,2.37,0,0,0-.75.05,3.34,3.34,0,0,0-.85.31,5.13,5.13,0,0,0-.79.52l-.07,0-.06,0-.35-.2a4.59,4.59,0,0,0-.5-.24,4.43,4.43,0,0,1-.67-.3A10.13,10.13,0,0,1,70.4,77.8l-.15-.13a2.7,2.7,0,0,0-1.43-.56l0,0h-.29l-.07,0a3.12,3.12,0,0,0-1,.24,5.61,5.61,0,0,0-1,.56,9.38,9.38,0,0,0-1,.85A13.85,13.85,0,0,0,64.22,80a16,16,0,0,0-1,1.36l0,.06a10.27,10.27,0,0,1-.7.78c-.15.15-.31.28-.47.42H58.94ZM95.87,74l-3.59-6c1-2.35.86-6.09.78-7.29L97,56.4C98.5,67.16,96.73,72.3,95.87,74Zm16.56-6.81a1.38,1.38,0,0,1,.86.66.48.48,0,0,1,.09.32.3.3,0,0,1-.12.22.3.3,0,0,1-.25,0,.56.56,0,0,1-.27-.2A1.56,1.56,0,0,1,112.43,67.23Zm-8.34,20.55L100,80.9a16.76,16.76,0,0,0,.7-5.48l5-3.49C106.5,81.47,104.78,86.29,104.09,87.78Zm-53.18,8.3,3.86-6.46h47l-.06,0-.24-.13a7.29,7.29,0,0,1-.8-.57c-.46-.36-.9-.75-1.33-1.15-.62-.58-1.21-1.18-1.8-1.79-.38-.4-.76-.81-1.13-1.23-.16-.18-.33-.35-.51-.52a6.68,6.68,0,0,0-1-.81,4.82,4.82,0,0,0-.5-.27h4.94l7.77,13Zm7.76-13h2.87a20.73,20.73,0,0,1-1.74,1.35l-.17.11a9.6,9.6,0,0,0-.93.64c-.49.37-1,.76-1.41,1.17s-.9.83-1.34,1.26Zm20.18-1.76.33.14a2.48,2.48,0,0,1,.37.17,6.74,6.74,0,0,1,1,.62,10.46,10.46,0,0,1,1.37,1.29c.63.72,1.29,1.42,2,2.11l.82.84c.71.7,1.43,1.39,2.18,2l.14.12,0,0H83.33a.14.14,0,0,1-.11,0L83,88.5c-.52-.4-1-.82-1.49-1.26s-1.09-1-1.63-1.53c-1.16-1.13-2.28-2.31-3.37-3.51l-.57-.63a12.27,12.27,0,0,0-1.36-1.24l0,0s0,0,0,0a4,4,0,0,1,.75-.42,2,2,0,0,1,.47-.12,1.32,1.32,0,0,1,.81.14,1.63,1.63,0,0,1,.35.23,7.87,7.87,0,0,0,.87.65A8.69,8.69,0,0,0,78.85,81.35Zm14.8,2.44.17.07a2.22,2.22,0,0,1,.41.2,5.65,5.65,0,0,1,1,.73,7,7,0,0,1,.54.55c.34.39.69.77,1,1.15l1,1c.4.4.81.79,1.22,1.16l.06.06H97a.19.19,0,0,1-.14,0c-.38-.32-.75-.64-1.12-1s-.7-.66-1-1c-.76-.75-1.5-1.52-2.21-2.31-.16-.17-.3-.34-.46-.5a7.79,7.79,0,0,0-1.16-1l0,0s0,0,0,0a1.64,1.64,0,0,1,.56-.24.81.81,0,0,1,.57.09l.2.15A6.78,6.78,0,0,0,93.65,83.79Zm-2.77.27a8.11,8.11,0,0,1,.78.77c.53.6,1.08,1.18,1.63,1.75s1,1,1.53,1.51l.63.58,0,0H92.58a.09.09,0,0,1-.09,0c-.19-.16-.39-.31-.57-.47-.54-.45-1.06-.93-1.57-1.42-.3-.29-.59-.57-.88-.87-.76-.76-1.5-1.54-2.23-2.34-.16-.18-.31-.35-.48-.52a7.85,7.85,0,0,0-.84-.79s0,0,0,0h0l0,0a3.18,3.18,0,0,1,.62-.35,1.29,1.29,0,0,1,.44-.11.92.92,0,0,1,.46.11,1.27,1.27,0,0,1,.27.18,7.63,7.63,0,0,0,1.44.95,3.49,3.49,0,0,0,.44.2,2.22,2.22,0,0,1,.41.2A5.92,5.92,0,0,1,90.88,84.06Zm-4.45,0c.41.46.83.91,1.25,1.36s.77.81,1.17,1.2c.67.68,1.35,1.33,2.06,2l.17.14,0,0H88.5a.14.14,0,0,1-.11,0l-.57-.46c-.61-.52-1.2-1.06-1.78-1.61-.31-.3-.62-.6-.92-.91q-1.23-1.23-2.4-2.52c-.18-.2-.35-.4-.54-.59a9.86,9.86,0,0,0-1.51-1.3,6.71,6.71,0,0,0-.81-.49l0,0s0,0,0,0a2.61,2.61,0,0,1,.77-.32,1.12,1.12,0,0,1,.41,0,1.34,1.34,0,0,1,.48.15,2.27,2.27,0,0,1,.32.22,8.69,8.69,0,0,0,1.82,1.17l.28.12a2.92,2.92,0,0,1,.47.23,6.73,6.73,0,0,1,1,.68A9.75,9.75,0,0,1,86.43,84ZM75,81.88c.25.25.49.51.73.78l.8.87c.48.52,1,1,1.45,1.54.89.9,1.79,1.79,2.72,2.63.36.33.72.65,1.1,1,0,0,0,0,.06.06H56.16s0,0,0,0l.35-.36,1.17-1.11c.48-.43,1-.86,1.49-1.26a11.18,11.18,0,0,1,1-.66l.28-.19a18.61,18.61,0,0,0,2.3-1.87A12.44,12.44,0,0,0,63.92,82L64,81.9a13.35,13.35,0,0,1,1-1.38,11,11,0,0,1,.92-1A6.75,6.75,0,0,1,67,78.6a3.53,3.53,0,0,1,.81-.44A2.59,2.59,0,0,1,68.4,78a1.63,1.63,0,0,1,1,.2,2,2,0,0,1,.39.26,8.49,8.49,0,0,0,.9.68,9.67,9.67,0,0,0,1.12.66,5.78,5.78,0,0,0,.63.28,3.91,3.91,0,0,1,.41.2,7.56,7.56,0,0,1,1,.67A11.45,11.45,0,0,1,75,81.88ZM69.18,97.77a12.12,12.12,0,0,0,4.14,2c-1,.3-7.46,2-13-2ZM78,103s.61-3.21,1-5.24h0c.36,2,1,5.24,1,5.24a3.65,3.65,0,0,1-1,3A3.62,3.62,0,0,1,78,103Zm10.76-5.24h8.83c-5.52,4-12,2.3-13,2A12.29,12.29,0,0,0,88.75,97.77Zm22.48-31.66a.51.51,0,0,1-.09-.35.34.34,0,0,1,.1-.17l.08.07a2.6,2.6,0,0,1,.78.77.78.78,0,0,1,0,.34A1.56,1.56,0,0,1,111.23,66.11Zm-6.94-15.46a.4.4,0,0,1-.54,0,1.62,1.62,0,0,1-.53-.88s0,0,0-.06a1.46,1.46,0,0,1,1,.45A.4.4,0,0,1,104.29,50.65Zm-.74-2.55,1-.34h0l-.24,1-.8.11h0Zm-1.85.19a.31.31,0,0,1,.22-.09.51.51,0,0,1,.33.14,1.46,1.46,0,0,1,.52.86.34.34,0,0,0-.17,0,1.92,1.92,0,0,1-.8-.42A.4.4,0,0,1,101.7,48.29Zm-21.52-12h.11a.4.4,0,0,1,.43.33c0,.18-.2.33-.44.33a1.55,1.55,0,0,1-1-.33A1.31,1.31,0,0,1,80.18,36.3Zm-1.22-2h0l.51.92-.51.62h0l-.51-.62ZM77.65,37h0a.44.44,0,0,1-.34-.13.27.27,0,0,1,0-.4.48.48,0,0,1,.35-.13,1.37,1.37,0,0,1,1,.33A1.54,1.54,0,0,1,77.65,37Zm1.09,6.13a9.45,9.45,0,0,0,1-2.5,13.44,13.44,0,0,1-.35,6L79,45.79l-1.56,2.6A8.56,8.56,0,0,1,78.74,43.1ZM55.68,48.34A.47.47,0,0,1,56,48.2a.3.3,0,0,1,.2.09.33.33,0,0,1,.07.21.43.43,0,0,1-.17.33,1.52,1.52,0,0,1-.93.45h0A1.38,1.38,0,0,1,55.68,48.34Zm-2.3-.58h0l1,.34,0,.8h0l-.79-.11Zm.46,3a.29.29,0,0,1-.2-.08.33.33,0,0,1-.07-.21.47.47,0,0,1,.17-.34,1.44,1.44,0,0,1,.91-.44h.07a1.57,1.57,0,0,1-.54.94A.42.42,0,0,1,53.84,50.73ZM46.69,66.12a1.57,1.57,0,0,1-.86.65.69.69,0,0,1,0-.32,2.74,2.74,0,0,1,.8-.79l.07-.06a.38.38,0,0,1,.09.19A.53.53,0,0,1,46.69,66.12Zm-6,14.5a5.12,5.12,0,0,0,.15-.56.32.32,0,0,1,.24-.15,2.43,2.43,0,0,0,1.13-.45,3.32,3.32,0,0,1,1.12-.67c.73-.27.73-.91,1.4-2.12a7.8,7.8,0,0,0,.37-3.54,4.34,4.34,0,0,1-1.27,1.25,6.66,6.66,0,0,0-.16-1.46,4.77,4.77,0,0,1,0-1.12c-1.66.85-1.85,2.43-2.6,3.27h0a43.74,43.74,0,0,1,1-5.33h0c.08-.27.64-.57,1.31-.75a2.68,2.68,0,0,0,1-.79h0a.59.59,0,0,0,.24.44.56.56,0,0,0,.33.1l.17,0a.82.82,0,0,0,.25-.12l-.16,1s-.14.41.65.58c-.18,2-1.32,16.66,3.58,25.21l-.34.57A10.27,10.27,0,0,1,47.54,94a1.79,1.79,0,0,1-.19,1.13A3.8,3.8,0,0,0,47,96.79a3.43,3.43,0,0,1-.17-1.25,5.48,5.48,0,0,0,.17-2,19,19,0,0,0-.35-2.23c-.11,1-.86,1-1.24,2a4.75,4.75,0,0,1-.83,1.5,2.9,2.9,0,0,0-.45,1.29c-.42-1.22-.81-2.44-1.17-3.64a5.3,5.3,0,0,0,.22-1.46c.43-.39.83-.42,1-.67s.1-.64.29-1a7.56,7.56,0,0,0,.65-1.31c.18-1,.75-2.15.26-3.25l-.51.19a2.38,2.38,0,0,1,.14-.56,10.08,10.08,0,0,0-.19-3.53,8.55,8.55,0,0,0-1.13,1c-.37.46-1,.65-1.21,1.21s-.56.56-.83,1.13a3.94,3.94,0,0,0-.42,1.51A27.15,27.15,0,0,1,40.64,82C40.63,81.59,40.63,81.12,40.64,80.62Zm42.1,38.64a5.33,5.33,0,0,0-2.4.6l0-.07A44.23,44.23,0,0,1,83.58,115,4.11,4.11,0,0,1,82.74,119.26Zm-5,.6a5.25,5.25,0,0,0-2.4-.6,4.12,4.12,0,0,1-.83-4.25,45.75,45.75,0,0,1,3.27,4.78A.25.25,0,0,0,77.74,119.86Zm28.72-11.76a1,1,0,0,0,.11-.28,6,6,0,0,0,.38-1.77,10.53,10.53,0,0,0-.57-2.22c-.26-.67-.91-2.23-1.58-2.52l-.72,2.41a5.75,5.75,0,0,1-.67,1.77,7,7,0,0,0-.41.71,4.15,4.15,0,0,1,0-1.25c.11-1.23-1.85-3.16-1.85-3.16a6.53,6.53,0,0,1-.94,3.16,6.86,6.86,0,0,0-1,2.68,3.21,3.21,0,0,1-.75,1.78c-.56.75.07,3.93.14,4.3-1.25.77-2.55,1.52-3.76,2.13-.36.18-.77.36-1.22.55l.25-.23a6.29,6.29,0,0,0,1.85-2.87c.58-.1-.78-.25-1.57-.18.46-.7,1.1-1.66,1.55-2.48.35-.67-3,.22-3,.22-.36.14-.65.26-.89.34a13.79,13.79,0,0,0,.54-2.35c0-.26-1.42.19-2.54.67a17.28,17.28,0,0,0-2.36,1.69c-1,.65-1.13,2.25-1.59,3a6.17,6.17,0,0,0-.58,1.26,1.48,1.48,0,0,0-.66-1.25h0a.05.05,0,0,0,0,0l0,0a.67.67,0,0,0-.19,0c-.21-.05-.56-.1-1.11-.17a2.43,2.43,0,0,0-2.52,1,28.62,28.62,0,0,0-1.22,3.94,1.13,1.13,0,0,0-.44-.1,1.08,1.08,0,0,0-.43.1A28.82,28.82,0,0,0,77.38,115a2.43,2.43,0,0,0-2.52-1c-.55.07-.9.12-1.11.17a.77.77,0,0,0-.19,0l0,0,0,0h0c-.35.17-.68.63-.7,1.73a4.47,4.47,0,0,0-.69-1.74c-.46-.75-.59-2.35-1.58-3a17.92,17.92,0,0,0-2.36-1.69c-1.13-.48-2.52-.93-2.55-.67a13.79,13.79,0,0,0,.54,2.35c-.24-.08-.53-.2-.89-.34,0,0-3.35-.89-3-.22.44.82,1.08,1.78,1.54,2.48-.79-.07-2.15.08-1.57.18a6.29,6.29,0,0,0,1.85,2.87l.25.23c-.45-.19-.86-.37-1.22-.55-1.21-.61-2.51-1.36-3.75-2.13.07-.37.69-3.55.13-4.3a3.28,3.28,0,0,1-.75-1.78,6.7,6.7,0,0,0-1-2.68,6.76,6.76,0,0,1-.94-3.16s-1.95,1.93-1.85,3.16a4.89,4.89,0,0,1,0,1.25c-.17-.32-.33-.59-.41-.71a5.28,5.28,0,0,1-.67-1.77c-.19-.64-.73-2.41-.73-2.41-.67.29-1.31,1.85-1.58,2.52a11.08,11.08,0,0,0-.56,2.22,5.71,5.71,0,0,0,.37,1.77.85.85,0,0,0,.12.28,14.74,14.74,0,0,1-3.67-3.75,2,2,0,0,1,.39-1,7,7,0,0,0,1.39-2.14,4.91,4.91,0,0,0,0-1.69,15,15,0,0,1,.27-1.66l0-.11H51.4c2.78,2,12.79,8.36,24.56,3.22a1.54,1.54,0,0,1-.19.42S73.24,104.84,79,106h0c5.72-1.17,3.19-4.6,3.19-4.6A1.28,1.28,0,0,1,82,101c11.77,5.15,21.78-1.17,24.57-3.22h1.57l0,.11a15,15,0,0,1,.27,1.66,4.91,4.91,0,0,0,0,1.69,7.4,7.4,0,0,0,1.39,2.14,1.91,1.91,0,0,1,.4,1A15.08,15.08,0,0,1,106.46,108.1Z"/><path class="cls-1" d="M97.34,111.31a.54.54,0,0,0-.56.53.55.55,0,0,0,.56.57.56.56,0,0,0,.56-.57A.55.55,0,0,0,97.34,111.31Z"/><path class="cls-1" d="M100.51,115.19a.57.57,0,0,0-.57.56.55.55,0,0,0,.57.57.57.57,0,0,0,.56-.57A.59.59,0,0,0,100.51,115.19Z"/><path class="cls-1" d="M107.86,102.91a.58.58,0,0,0-.57.57.59.59,0,0,0,.57.56.57.57,0,0,0,.56-.56A.56.56,0,0,0,107.86,102.91Z"/><path class="cls-1" d="M111.8,105.7a.63.63,0,0,0,.62.62.6.6,0,0,0,.61-.62.61.61,0,0,0-.61-.61A.64.64,0,0,0,111.8,105.7Z"/><path class="cls-1" d="M113.25,92.54a.59.59,0,0,0,.61-.61.62.62,0,0,0-.61-.62.64.64,0,0,0-.62.62A.61.61,0,0,0,113.25,92.54Z"/><path class="cls-1" d="M115.13,80.16a.61.61,0,0,0-.62.61.62.62,0,1,0,1.23,0A.61.61,0,0,0,115.13,80.16Z"/><path class="cls-1" d="M118.56,70.1a.6.6,0,1,0,0-1.2.62.62,0,0,0-.62.61A.61.61,0,0,0,118.56,70.1Z"/><path class="cls-1" d="M114.19,71.23a.61.61,0,0,0,.61-.62.62.62,0,0,0-1.23,0A.61.61,0,0,0,114.19,71.23Z"/><path class="cls-1" d="M110.51,61.21a.6.6,0,0,0-.61-.59.6.6,0,1,0,0,1.2A.6.6,0,0,0,110.51,61.21Z"/><path class="cls-1" d="M113.17,59.22a.61.61,0,0,0,.61-.61.62.62,0,1,0-1.23,0A.61.61,0,0,0,113.17,59.22Z"/><path class="cls-1" d="M119.34,80.88a.6.6,0,1,0,.61-.59A.6.6,0,0,0,119.34,80.88Z"/><path class="cls-1" d="M60.6,111.31a.56.56,0,0,0-.56.53.57.57,0,0,0,.56.57.55.55,0,0,0,.57-.57A.54.54,0,0,0,60.6,111.31Z"/><path class="cls-1" d="M58,115.75a.57.57,0,0,0-.56-.56.59.59,0,0,0-.57.56.57.57,0,0,0,.57.57A.55.55,0,0,0,58,115.75Z"/><path class="cls-1" d="M50.09,102.91a.56.56,0,0,0-.56.57.57.57,0,0,0,.56.56.59.59,0,0,0,.56-.56A.57.57,0,0,0,50.09,102.91Z"/><path class="cls-1" d="M45.53,106.32a.62.62,0,0,0,.61-.62.63.63,0,0,0-.61-.61.62.62,0,0,0-.62.61A.61.61,0,0,0,45.53,106.32Z"/><path class="cls-1" d="M44.7,91.31a.62.62,0,0,0-.62.62.6.6,0,0,0,.62.61.61.61,0,0,0,.61-.61A.63.63,0,0,0,44.7,91.31Z"/><path class="cls-1" d="M41.48,93.05a.61.61,0,0,0-.62-.62.62.62,0,1,0,0,1.24A.61.61,0,0,0,41.48,93.05Z"/><path class="cls-1" d="M42.82,81.39a.62.62,0,0,0,.62-.62.62.62,0,0,0-1.24,0A.62.62,0,0,0,42.82,81.39Z"/><path class="cls-1" d="M39.39,70.1a.62.62,0,0,0,.62-.59.63.63,0,0,0-.62-.61.6.6,0,1,0,0,1.2Z"/><path class="cls-1" d="M43.76,70a.62.62,0,0,0-.62.61.62.62,0,1,0,1.24,0A.62.62,0,0,0,43.76,70Z"/><path class="cls-1" d="M47.43,61.21a.6.6,0,0,0,.62.61.6.6,0,1,0,0-1.2A.6.6,0,0,0,47.43,61.21Z"/><path class="cls-1" d="M44.78,59.22a.61.61,0,0,0,.62-.61.62.62,0,1,0-1.24,0A.61.61,0,0,0,44.78,59.22Z"/><path class="cls-1" d="M38.61,80.88a.6.6,0,0,0-.62-.59.59.59,0,0,0,0,1.18A.6.6,0,0,0,38.61,80.88Z"/><path class="cls-1" d="M71.72,72.25c.27,0,.35,0,.45.27l.16-.06-.16-.37,1.08-.46-.11-.21-1.5.67Z"/><path class="cls-1" d="M71.37,70.32l-.22,0,.19.83.91-.08,0-.16a.44.44,0,0,1-.25-.27.37.37,0,0,1,.27-.43.35.35,0,0,1,.46.24c.05.19,0,.35-.19.4l0,.22a.49.49,0,0,0,.33-.62.56.56,0,0,0-.7-.46.52.52,0,0,0-.4.65A.43.43,0,0,0,72,71l-.45,0Z"/><path class="cls-1" d="M71.45,69c.29,0,.37-.22.43-.32l.11-.35c.08-.27.13-.35.32-.32s.27.29.24.45-.14.46-.43.43l0,.22a.53.53,0,0,0,.46-.14.77.77,0,0,0,.19-.48c0-.3-.06-.67-.46-.7a.41.41,0,0,0-.46.32l-.16.49a.23.23,0,0,1-.24.18c-.24,0-.27-.26-.24-.43a.35.35,0,0,1,.38-.37v-.21c-.19,0-.54,0-.59.61A.53.53,0,0,0,71.45,69Z"/><polygon class="cls-1" points="73.19 66.41 73.01 66.35 72.68 67.32 72.15 67.13 72.44 66.27 72.25 66.19 71.96 67.08 71.48 66.92 71.8 65.98 71.58 65.9 71.21 67.08 72.82 67.58 73.19 66.41"/><path class="cls-1" d="M73.43,66l-.62-.39.27-.44a.49.49,0,0,0-.15-.71.44.44,0,0,0-.35-.06.53.53,0,0,0-.33.25l-.37.64,1.41.88Zm-1.26-.81.25-.39a.26.26,0,0,1,.26-.15.24.24,0,0,1,.11.06c.16.1.17.24.06.4l-.21.35Z"/><polygon class="cls-1" points="73.33 63.67 74.4 64.69 74.53 64.53 73.49 63.51 73.89 63.08 73.73 62.95 72.79 63.94 72.92 64.07 73.33 63.67"/><polygon class="cls-1" points="75.28 63.91 74.27 62.57 74.11 62.71 75.1 64.05 75.28 63.91"/><polygon class="cls-1" points="76.65 63.11 76.57 62.95 75.66 63.4 75.42 62.92 76.22 62.49 76.14 62.3 75.31 62.73 75.07 62.28 75.95 61.82 75.87 61.63 74.78 62.2 75.55 63.7 76.65 63.11"/><path class="cls-1" d="M77.06,63l-.22-1a1.71,1.71,0,0,1-.1-.4l.77,1.28.22,0,.16-1.47a1.82,1.82,0,0,1,.08.4l.21,1h0l.22,0L78.05,61l-.32.08-.16,1.51-.78-1.29-.32,0L76.84,63Z"/><path class="cls-1" d="M79.38,62.72c.37,0,.6-.18.6-.44a.41.41,0,0,0-.29-.43.36.36,0,0,0,.23-.35c0-.24-.12-.43-.44-.46l-.74,0-.08,1.68ZM79,61.25l.37,0c.24,0,.33.07.33.23s-.13.24-.35.22H79Zm.37.74c.16,0,.35,0,.35.27s-.14.27-.35.27l-.43,0L79,62Z"/><polygon class="cls-1" points="78.73 61.02 78.74 61.02 78.74 61.02 78.73 61.02"/><path class="cls-1" d="M80.56,62.18l.54.15c.27.08.24.24.21.37a1,1,0,0,0-.08.41l.27.07v0s0-.08,0-.19l0-.29c.08-.21,0-.29-.07-.35.1,0,.27-.08.33-.32s-.14-.5-.41-.58l-.75-.25-.45,1.64.21,0Zm.27-.71.48.17c.11,0,.28.07.19.31s-.2.2-.36.17L80.67,62Z"/><polygon class="cls-1" points="82.74 63.91 82.82 63.75 81.96 63.24 82.23 62.76 83.04 63.22 83.14 63.05 82.34 62.57 82.61 62.14 83.47 62.65 83.57 62.46 82.5 61.85 81.67 63.3 82.74 63.91"/><path class="cls-1" d="M83.78,65a.77.77,0,0,0,1.12,0,.72.72,0,0,0,.18-1.08l-.45-.5-1.27,1.06Zm1.08-.93c.19.22.16.45-.13.72s-.57.23-.75,0l-.26-.29.89-.75Z"/><polygon class="cls-1" points="84.91 66.81 85.1 66.73 84.64 65.81 85.16 65.58 85.56 66.41 85.74 66.3 85.31 65.49 85.8 65.25 86.23 66.14 86.42 66.06 85.85 64.96 84.35 65.71 84.91 66.81"/><path class="cls-1" d="M86.33,67.88,85.18,68l0,.22L86.84,68l0-.16c-.26,0-.29-.1-.37-.37l-.16,0Z"/><path class="cls-1" d="M86.47,68.86a.31.31,0,0,0-.33.23.45.45,0,0,0-.41-.33.48.48,0,0,0-.38.16.65.65,0,0,0-.14.4.48.48,0,0,0,.48.56.39.39,0,0,0,.43-.23.32.32,0,0,0,.33.21c.21,0,.44-.1.44-.48A.44.44,0,0,0,86.47,68.86Zm-.78.79c-.24,0-.27-.19-.27-.33a.27.27,0,0,1,.31-.29.27.27,0,0,1,.25.33A.26.26,0,0,1,85.69,69.65Zm.78,0a.31.31,0,0,1-.25-.31.24.24,0,0,1,.25-.23.21.21,0,0,1,.21.27C86.68,69.59,86.55,69.65,86.47,69.65Z"/><path class="cls-1" d="M86.23,70.24l0,.21c.11,0,.37.11.29.41s-.24.29-.34.24-.27-.19-.33-.38l0-.24a.78.78,0,0,0-.56-.54L84.94,71l.19.06.21-.89c.08,0,.19.11.24.35l.06.19c.08.29.16.51.42.56a.51.51,0,0,0,.62-.37A.55.55,0,0,0,86.23,70.24Z"/><path class="cls-1" d="M85.91,71.79l-.16.35-1-.51-.11.22,1.51.69.05-.16c-.22-.16-.19-.27-.08-.53Z"/><path class="cls-1" d="M76.92,77.72l.18,0,1.23-5.08-.18,0-1.22,5Z"/><path class="cls-1" d="M76.75,75.54l.17.06,1-3-.17,0-1,3Z"/><path class="cls-1" d="M75,77.39l.17.08,2.38-5-.17-.07-2.36,5Z"/><path class="cls-1" d="M74.62,76.56,77.2,72.3,77,72.21l-2.58,4.25Z"/><path class="cls-1" d="M73,76.63l0,0,.14.11,3.67-4.69L76.67,72Z"/><path class="cls-1" d="M73.27,75.47l3.25-3.61h0l-.14-.12-3.25,3.62Z"/><path class="cls-1" d="M76.24,71.6a1.58,1.58,0,0,1-.12-.15l-4.81,4.24.12.14,4.79-4.22Z"/><path class="cls-1" d="M76,71.27h0l-.12-.14-2.54,1.79,0,0,.11.15Z"/><path class="cls-1" d="M75.74,71s0-.1-.08-.16l-1.78,1,.09.16Z"/><path class="cls-1" d="M73.62,71.28l.07.17,1.88-.82-.09-.16Z"/><polygon class="cls-1" points="73.4 70.72 73.46 70.89 75.37 70.28 75.41 70.26 75.35 70.09 73.4 70.72"/><path class="cls-1" d="M75.3,69.89c0-.06,0-.11,0-.17l-2,.43,0,.18Z"/><path class="cls-1" d="M73.15,69.55l0,.18,2.06-.22c0-.06,0-.12,0-.18Z"/><path class="cls-1" d="M73.12,69.13l2.07,0s0,0,0-.09,0-.06,0-.09l-2.07,0Z"/><path class="cls-1" d="M73.15,68.56l2,.18h0c0-.06,0-.12,0-.18l-2-.17h0Z"/><path class="cls-1" d="M73.21,67.91l2,.45a1.16,1.16,0,0,1,0-.18l-2-.45Z"/><path class="cls-1" d="M73.38,67.37l1.93.64h0a1.54,1.54,0,0,1,0-.17l-2-.64Z"/><path class="cls-1" d="M73.63,66.64l-.08.17,1.91.81a1.3,1.3,0,0,1,.08-.17l-1.87-.79Z"/><path class="cls-1" d="M73.81,66.26l1.82,1h0l.09-.16-1.83-1Z"/><path class="cls-1" d="M74.16,65.76l1.66,1.18s.08-.09.11-.14l-1.66-1.19Z"/><path class="cls-1" d="M74.68,65.14l-.12.14,1.52,1.32h0l.12-.14-1.5-1.3Z"/><path class="cls-1" d="M75.1,64.73l-.13.12,1.39,1.46.14-.11-1.36-1.44Z"/><path class="cls-1" d="M75.57,64.36l-.14.11,1.26,1.58.14-.12L75.6,64.39Z"/><path class="cls-1" d="M76.15,64l-.16.09,1,1.72h0l.16-.08-1-1.7Z"/><path class="cls-1" d="M76.67,63.79l-.17.08.83,1.79.17-.08-.81-1.75Z"/><path class="cls-1" d="M77.25,63.58l-.17.06.65,1.87.18-.06-.64-1.82Z"/><path class="cls-1" d="M77.86,63.4l-.18,0,.41,2h0a1.13,1.13,0,0,1,.18,0l-.4-1.93Z"/><path class="cls-1" d="M78.5,65.34l.19,0-.2-2-.18,0Z"/><path class="cls-1" d="M79,63.31h-.18l0,2h0l.15,0,0-2Z"/><path class="cls-1" d="M79.24,65.31v0h.19l.19-2-.18,0Z"/><path class="cls-1" d="M79.77,65.42h0l.4-2-.18,0-.39,2Z"/><path class="cls-1" d="M80.79,63.64l-.17-.06L80,65.44l0,0,.18,0,.62-1.85Z"/><path class="cls-1" d="M81.35,63.86l-.17-.08-.81,1.8v0l.17.08.8-1.79Z"/><polygon class="cls-1" points="81.68 64.01 80.72 65.72 80.7 65.76 80.86 65.85 81.83 64.1 81.68 64.01"/><path class="cls-1" d="M81,65.94h0l.15.12,1.21-1.57,0,0-.15-.11Z"/><polygon class="cls-1" points="81.32 66.2 81.45 66.33 82.79 64.87 82.82 64.84 82.68 64.72 81.32 66.2"/><rect class="cls-1" x="81.4" y="65.78" width="2.01" height="0.18" transform="translate(-22.92 71.81) rotate(-41.86)"/><path class="cls-1" d="M81.89,66.78l0,0,.12.14,1.58-1.17,0,0-.1-.14Z"/><path class="cls-1" d="M82.09,67.07l0,0a1.19,1.19,0,0,1,.08.16l1.75-1,0,0-.09-.16Z"/><path class="cls-1" d="M82.27,67.43h0a1.19,1.19,0,0,0,.08.16l1.81-.79,0,0-.08-.17Z"/><path class="cls-1" d="M82.4,67.82c0,.06,0,.12,0,.17l1.85-.63h0l-.07-.17Z"/><path class="cls-1" d="M82.5,68.15c0,.06,0,.12,0,.18l2-.44,0-.18Z"/><path class="cls-1" d="M82.56,68.53c0,.06,0,.12,0,.18l1.94-.17h0v-.18Z"/><path class="cls-1" d="M82.61,69s0,0,0,.06l2,0v-.19l-2,0S82.61,69,82.61,69Z"/><path class="cls-1" d="M82.54,69.68a1.16,1.16,0,0,1,0,.18l1.92.44,0-.18Z"/><path class="cls-1" d="M84.54,69.7l0-.18-2-.22v0s0,.09,0,.14l1.94.21Z"/><path class="cls-1" d="M84.26,70.85l.06-.17-1.83-.61h0c0,.05,0,.11,0,.16l1.83.61Z"/><path class="cls-1" d="M82.33,70.44l-.09.16,1.76.79,0,0,.08-.17-1.79-.8Z"/><path class="cls-1" d="M82.07,70.92l1.67,1,0,0,.09-.16-1.71-1Z"/><path class="cls-1" d="M81.86,71.24l2.48,1.81.11-.15L82,71.1C81.94,71.15,81.89,71.19,81.86,71.24Z"/><path class="cls-1" d="M81.71,71.41l-.12.14,4.59,4.19,0,0,.13-.13-4.61-4.21Z"/><path class="cls-1" d="M81.32,71.81l3.13,3.6.13-.11-3.12-3.6h0l-.1.09Z"/><path class="cls-1" d="M81,72l3.54,4.67.14-.11-3.53-4.67Z"/><path class="cls-1" d="M80.67,72.26l2.46,4.19,0,0,.16-.09-2.48-4.23Z"/><path class="cls-1" d="M80.35,72.43l2.26,4.93,0,0,.17-.07-2.29-5Z"/><path class="cls-1" d="M80,72.56l1,2.94,0,0,.17-.06-1-3Z"/><path class="cls-1" d="M79.58,72.66l1.18,5,.18,0-1.18-5Z"/><path class="cls-1" d="M61.89,106.09s-.57.65-.26,1.21a.94.94,0,0,0,1.43,0S61.68,107.32,61.89,106.09Z"/><path class="cls-1" d="M94.87,107.3a.93.93,0,0,0,1.42,0c.32-.56-.25-1.21-.25-1.21C96.24,107.32,94.87,107.3,94.87,107.3Z"/><path class="cls-1" d="M67.06,105.38l-.29-.17L66,106.45l.3.18a.72.72,0,0,0,.73-1.25Z"/><path class="cls-1" d="M69.48,106.64a.75.75,0,0,0-.64,1.35.75.75,0,0,0,.64-1.35Z"/><path class="cls-1" d="M77.84,108.81a.71.71,0,0,0-.74.69.71.71,0,1,0,1.41.07A.71.71,0,0,0,77.84,108.81Z"/><path class="cls-1" d="M84.65,108.91l-.42.11.17.63.42-.11a.31.31,0,0,0,.23-.4A.31.31,0,0,0,84.65,108.91Z"/><path class="cls-1" d="M84.76,108.35a.26.26,0,0,0-.35-.2l-.38.1.15.55.38-.1A.27.27,0,0,0,84.76,108.35Z"/><path class="cls-1" d="M87.4,107.19a.73.73,0,0,0-.26.06l-.29.12.26.63.35-.14a.32.32,0,0,0,.19-.45A.32.32,0,0,0,87.4,107.19Z"/><path class="cls-1" d="M89.88,106.29l.1.64.51-.28-.48-.43-.19-.21h0S89.86,106.19,89.88,106.29Z"/><path class="cls-1" d="M95.32,106.43l-.61-.23a2.31,2.31,0,0,1,1.33-.11l-.74-.67a4.86,4.86,0,0,0-5.5-.7,20.56,20.56,0,0,1-21.68,0,4.85,4.85,0,0,0-5.49.7l-.74.67a2.27,2.27,0,0,1,1.32.11l-.6.23c.77.31.45.87.45.87l.94-.83a33.16,33.16,0,0,1,4.12,2.07A21.34,21.34,0,0,0,79,111.28h0a21.28,21.28,0,0,0,10.84-2.74,33.64,33.64,0,0,1,4.13-2.07l.94.83S94.55,106.74,95.32,106.43Zm-29.1.41-.54-.33,1-1.64.55.32a1,1,0,1,1-1,1.65Zm1.36.76-.24-.13.91-1.68.23.13Zm1.16.61a1,1,0,1,1,1.31-.48A1,1,0,0,1,68.74,108.21Zm2.66-.57a.62.62,0,0,0-.33-.3.3.3,0,0,0-.42.13c-.15.37.75.6.53,1.18a.55.55,0,0,1-.76.28.87.87,0,0,1-.5-.46l.22-.13a.72.72,0,0,0,.38.36.28.28,0,0,0,.4-.14c.15-.38-.74-.64-.53-1.18a.57.57,0,0,1,.77-.28.77.77,0,0,1,.43.38ZM73,109.78a.69.69,0,0,1-.55-.88l.32-1.2.26.07L72.7,109a.45.45,0,0,0,.35.57.44.44,0,0,0,.59-.33L74,108l.26.07-.32,1.2A.7.7,0,0,1,73,109.78Zm2.72.54-.26,0-.62-1.37c0-.12-.11-.31-.11-.31h0s0,.17,0,.28l-.22,1.23-.26,0,.34-1.89.26,0,.62,1.38c0,.11.11.3.11.3h0s0-.17,0-.28l.22-1.22.27,0Zm.72.08-.27,0,.23-1.9.26,0Zm1.32.14a1,1,0,0,1-.92-1.05,1,1,0,0,1,2,.1A1,1,0,0,1,77.75,110.54Zm2.62,0-.9-1.2c-.07-.1-.17-.27-.17-.27h0a2.06,2.06,0,0,1,0,.27l.05,1.24h-.26l-.08-1.9.26,0,.9,1.21a2.15,2.15,0,0,1,.17.27h0a2.07,2.07,0,0,1,0-.28l0-1.24h.26l.08,1.91Zm1.78-.18-.3-1.89.26,0,.27,1.66.84-.13,0,.22Zm1.34-.23-.39-1.88.26,0,.39,1.87Zm1.37-.32-.66.17-.49-1.85.65-.17a.49.49,0,0,1,.66.33.43.43,0,0,1-.13.46h0a.48.48,0,0,1,.42.37A.56.56,0,0,1,84.86,109.77Zm1-.27-.6-1.82,1.06-.35.07.22-.8.27.19.57.65-.22.07.22-.65.22.19.58.85-.28.07.22Zm2.41-.88-.66-.56-.38.16.29.7-.25.1-.71-1.77.54-.22a1,1,0,0,1,.35-.09.57.57,0,0,1,.36,1h0l.09.06.65.54Zm.94-.42-.72-1.52-.59.28-.1-.22,1.43-.67.1.21-.59.28.71,1.52Zm1.92-1-.43-.39-.64.35.1.57-.24.13-.31-2,.25-.13,1.52,1.35Zm1-.58-.53.34-1-1.63.54-.33a1,1,0,1,1,1,1.62Z"/><path class="cls-1" d="M91.16,105.21l-.3.18.77,1.23.29-.18a.67.67,0,0,0,.23-1A.66.66,0,0,0,91.16,105.21Z"/></g></g></svg>