<svg xmlns="http://www.w3.org/2000/svg" viewBox="0 0 264.77 44.74"><defs><style>.cls-1{fill:#323a45;}</style></defs><title>Logo_GOES_horizontal_1</title><g id="Capa_2" data-name="Capa 2"><g id="Layer_11" data-name="Layer 11"><path class="cls-1" d="M9.06,25a10.43,10.43,0,0,1-4.12,1A4.75,4.75,0,0,1,0,21.13a5.13,5.13,0,0,1,5.37-5.2,13,13,0,0,1,3.06.52.55.55,0,0,0,.36-.11H9v2.5H8.69a2.93,2.93,0,0,0-3.15-2.53c-2.71,0-4.09,2.25-4.09,4.73,0,3.15,2.21,4.55,4,4.55A5.23,5.23,0,0,0,7.79,25V23.07c0-.88-.31-1.17-1.23-1.17H6v-.28h4.15v.28c-.77.05-1.08.31-1.08,1Z"/><path class="cls-1" d="M15.65,26c-3,0-5.55-1.94-5.55-4.82,0-3.06,2.35-5.23,5.63-5.23,2.91,0,5.4,2,5.4,4.75A5.3,5.3,0,0,1,15.65,26Zm-.32-9.67c-2.71,0-3.79,2.53-3.79,4.37,0,2.88,2,4.91,4.44,4.91s3.7-2.21,3.7-4.4C19.68,18.33,17.87,16.31,15.33,16.31Z"/><path class="cls-1" d="M22.58,17.79c0-.88-.11-1.34-1.19-1.34h-.53v-.29c.43,0,1.49-.08,1.93-.09.85,0,2-.05,2.31-.05a6,6,0,0,1,3.1.6,2,2,0,0,1,.93,1.71,2,2,0,0,1-1.75,1.88v0a2.76,2.76,0,0,1,2.29,2.57,3,3,0,0,1-3.32,2.92H20.72v-.29h.35c1.26,0,1.51-.29,1.51-1.26Zm1.28,2.37h1.67c1.48,0,2.22-.58,2.22-1.78s-.65-2.07-2.54-2.07c-.34,0-1,0-1.35.05Zm0,3.57c0,1.17.46,1.59,1.75,1.59a2.31,2.31,0,0,0,2.62-2.47,2.47,2.47,0,0,0-2.71-2.4H23.86Z"/><path class="cls-1" d="M33.69,25.73H30v-.29c1-.05,1.16-.29,1.16-1.32V17.56c0-.83-.3-1.06-1.16-1.11v-.29h3.74v.29c-1,0-1.31.22-1.31,1.25v6.52c0,.91.25,1.22,1.31,1.22Z"/><path class="cls-1" d="M41.18,22.27h-.29c-.12-1.09-.42-1.22-1-1.22h-2.6v3.28c0,.71.26.85.83.85h2.37c1.08,0,1.4-.42,1.79-1.74h.27l-.24,2.29H34.09v-.29h.43c1.23,0,1.44-.34,1.44-1.26v-6.5c0-.86-.2-1.23-1.23-1.23h-.34v-.29h7.39l.12,2.14h-.27c-.2-1.31-.59-1.59-1.14-1.59H37.24V20.5H40c.55,0,.81-.26.89-1.15h.29Z"/><path class="cls-1" d="M45,24.28c0,.93.37,1.16,1.24,1.16h.35v.29H42.24v-.29h.27c.9,0,1.23-.25,1.23-1.28V17.68c0-.95-.26-1.23-1.16-1.23h-.34v-.29c.37,0,1.31-.06,1.94-.09s.94-.05,1.94-.05c2.85,0,4.13,1.17,4.13,2.74a2.63,2.63,0,0,1-2,2.49A19,19,0,0,1,50,22.85l1.22,1.22a4.59,4.59,0,0,0,3,1.55v.28c-2.69.12-3.38-.46-4.75-1.83l-1-1a13.09,13.09,0,0,0-1.58-1.37c-.39,0-.64,0-1.05,0s-.54,0-.79,0Zm0-2.89a6.2,6.2,0,0,0,1,0c1.71,0,2.83-.72,2.83-2.57,0-1.43-.65-2.54-3-2.54a6.52,6.52,0,0,0-.77,0Z"/><path class="cls-1" d="M62.86,26l-8-8.34v6.6c0,1.11.25,1.34,1.55,1.34v.29H52.87V25.6h.07c1,0,1.26-.33,1.26-1V17a2.29,2.29,0,0,0-1.29-.38v-.29h2.41l7.25,7.55V17.75c0-.94-.28-1.11-1.51-1.14v-.29h3.6v.29c-1.15,0-1.4.2-1.4.8V26Z"/><path class="cls-1" d="M69.86,26c-3,0-5.56-1.94-5.56-4.82,0-3.06,2.36-5.23,5.64-5.23,2.9,0,5.4,2,5.4,4.75A5.31,5.31,0,0,1,69.86,26Zm-.32-9.67c-2.71,0-3.79,2.53-3.79,4.37,0,2.88,2,4.91,4.43,4.91s3.71-2.21,3.71-4.4C73.89,18.33,72.08,16.31,69.54,16.31Z"/><path class="cls-1" d="M80.54,17.7c0-1-.26-1.25-1.17-1.25h-.31v-.29l2.17-.09C82.08,16,83,16,83.82,16c4.06,0,5.86,2.06,5.86,4.6,0,2.33-1.8,5.11-5.7,5.11H79.06v-.29h.26c.83,0,1.22-.23,1.22-1.12Zm1.27,6.89c0,.63,0,.85,1.27.85,2.06,0,2.92-.29,3.87-1.25a4.74,4.74,0,0,0,1.28-3.32A4.63,4.63,0,0,0,87,17.56c-.71-.71-1.8-1.25-4-1.25a10.69,10.69,0,0,0-1.24.07Z"/><path class="cls-1" d="M96.44,22.27h-.3c-.12-1.09-.41-1.22-1-1.22H92.5v3.28c0,.71.26.85.83.85H95.7c1.07,0,1.4-.42,1.78-1.74h.28l-.25,2.29H89.34v-.29h.43c1.23,0,1.45-.34,1.45-1.26v-6.5c0-.86-.2-1.23-1.23-1.23h-.34v-.29H97l.12,2.14h-.28c-.2-1.31-.58-1.59-1.14-1.59H92.5V20.5h2.75c.56,0,.82-.26.89-1.15h.3Z"/><path class="cls-1" d="M175.63,22h-.29c-.13-1.09-.42-1.21-1.05-1.21h-2.6v3.28c0,.7.26.84.83.84h2.37c1.08,0,1.4-.41,1.79-1.74H177l-.24,2.3h-8.18v-.3H169c1.23,0,1.44-.33,1.44-1.26V17.4c0-.86-.2-1.23-1.23-1.23h-.34v-.3h7.39l.12,2.14h-.28c-.2-1.3-.58-1.58-1.13-1.58h-3.25v3.78h2.75c.56,0,.82-.26.9-1.15h.29Z"/><path class="cls-1" d="M184.36,25.45h-6.88v-.3h.5c.71,0,1-.23,1-1V17.32c0-.81-.24-1.15-1.21-1.15h-.22v-.3h4.54v.3h-.57c-1,0-1.26.11-1.26,1.06v7.09c0,.42.17.57.62.57h2.26c.91,0,1.18-.35,2.15-1.69h.28Z"/><path class="cls-1" d="M190,23.11a2.67,2.67,0,0,0,2.6,2.17,1.93,1.93,0,0,0,2.12-1.82c0-2.21-4.94-2.89-4.94-5.58a2.46,2.46,0,0,1,2.74-2.24c1.3,0,1.56.39,2.1.39a.28.28,0,0,0,.27-.16h.25l.26,2h-.26A2.72,2.72,0,0,0,192.65,16a1.53,1.53,0,0,0-1.72,1.45c0,2.19,4.94,2.77,4.94,5.6,0,1.51-1.34,2.63-3.14,2.63a12.77,12.77,0,0,1-2.14-.41.35.35,0,0,0-.31.17H190l-.32-2.34Z"/><path class="cls-1" d="M199.42,21.2l-.89,2.42a4.22,4.22,0,0,0-.31,1c0,.42.4.57,1.25.57h.25v.3h-3.56v-.3c1,0,1.17-.18,1.66-1.52l2.8-7.65-.13-.34h1.33L205,24.18a1.21,1.21,0,0,0,1.4,1v.3h-4.23v-.3h.4c.88,0,1.2-.09,1.2-.52a1.69,1.69,0,0,0-.17-.63l-1-2.8ZM201,16.94l-1.3,3.58h2.66Z"/><path class="cls-1" d="M213.24,25.45h-6.87v-.3h.5c.71,0,1-.23,1-1V17.32c0-.81-.24-1.15-1.21-1.15h-.22v-.3H211v.3h-.57c-1,0-1.26.11-1.26,1.06v7.09c0,.42.17.57.62.57H212c.91,0,1.18-.35,2.15-1.69h.28Z"/><path class="cls-1" d="M216.74,25.69l-3.34-8.32c-.39-1-.57-1.2-1.51-1.2v-.3h4.23v.3c-1.42,0-1.75.35-1.46,1.06l2.77,6.89,2.43-6.35a2.94,2.94,0,0,0,.26-1c0-.46-.38-.64-1.43-.64v-.3h3.57v.3c-.8,0-1.21.37-1.58,1.32l-3.17,8.2Z"/><path class="cls-1" d="M223.74,21.2l-.89,2.42a4.22,4.22,0,0,0-.31,1c0,.42.4.57,1.25.57H224v.3h-3.55v-.3c1,0,1.17-.18,1.66-1.52l2.8-7.65-.14-.34h1.34l3.22,8.54a1.2,1.2,0,0,0,1.4,1v.3h-4.24v-.3h.4c.88,0,1.21-.09,1.21-.52A1.69,1.69,0,0,0,228,24l-1-2.8Zm1.57-4.26L224,20.52h2.66Z"/><path class="cls-1" d="M232.08,17.41c0-1-.26-1.24-1.17-1.24h-.31v-.3l2.17-.09c.85,0,1.79,0,2.59,0,4.06,0,5.86,2.06,5.86,4.6,0,2.32-1.8,5.11-5.69,5.11H230.6v-.3h.27c.83,0,1.21-.23,1.21-1.12Zm1.28,6.9c0,.63,0,.84,1.26.84,2.06,0,2.92-.29,3.88-1.24a4.76,4.76,0,0,0,1.28-3.33,4.61,4.61,0,0,0-1.24-3.3c-.7-.71-1.8-1.25-3.95-1.25a11.17,11.17,0,0,0-1.23.06Z"/><path class="cls-1" d="M247.46,25.69c-3,0-5.56-1.94-5.56-4.81,0-3.07,2.36-5.24,5.64-5.24,2.9,0,5.4,2,5.4,4.76A5.3,5.3,0,0,1,247.46,25.69ZM247.14,16c-2.71,0-3.79,2.52-3.79,4.37,0,2.88,2,4.91,4.43,4.91s3.71-2.22,3.71-4.4C251.49,18,249.67,16,247.14,16Z"/><path class="cls-1" d="M255.59,24c0,.92.37,1.15,1.23,1.15h.35v.3h-4.35v-.3h.26c.91,0,1.23-.24,1.23-1.27V17.4c0-1-.26-1.23-1.15-1.23h-.34v-.3c.37,0,1.3-.06,1.94-.09s.93,0,1.93,0c2.85,0,4.13,1.17,4.13,2.74A2.63,2.63,0,0,1,258.77,21a20.3,20.3,0,0,1,1.76,1.6l1.21,1.21a4.65,4.65,0,0,0,3,1.56v.28c-2.69.12-3.38-.47-4.75-1.84l-1-1a11,11,0,0,0-1.58-1.37c-.39,0-.63,0-1.05,0s-.54,0-.78,0Zm0-2.89a7.66,7.66,0,0,0,1,0c1.71,0,2.83-.73,2.83-2.57,0-1.43-.64-2.54-3-2.54a6.36,6.36,0,0,0-.77,0Z"/><polygon class="cls-1" points="134.07 0 134.68 1.25 136.06 1.45 135.06 2.42 135.3 3.79 134.07 3.14 132.84 3.79 133.07 2.42 132.08 1.45 133.45 1.25 134.07 0"/><polygon class="cls-1" points="143.11 2.31 143.73 3.56 145.1 3.75 144.11 4.72 144.34 6.09 143.11 5.45 141.88 6.09 142.12 4.72 141.12 3.75 142.5 3.56 143.11 2.31"/><polygon class="cls-1" points="150.05 7.92 150.66 9.17 152.04 9.37 151.04 10.34 151.28 11.71 150.05 11.06 148.82 11.71 149.05 10.34 148.06 9.37 149.43 9.17 150.05 7.92"/><polygon class="cls-1" points="154.01 15.96 154.63 17.21 156 17.41 155.01 18.38 155.24 19.75 154.01 19.1 152.78 19.75 153.01 18.38 152.02 17.41 153.4 17.21 154.01 15.96"/><polygon class="cls-1" points="154.16 25.29 154.78 26.53 156.15 26.73 155.16 27.7 155.39 29.07 154.16 28.43 152.93 29.07 153.17 27.7 152.17 26.73 153.55 26.53 154.16 25.29"/><polygon class="cls-1" points="150.06 33.36 150.67 34.61 152.05 34.81 151.05 35.78 151.29 37.15 150.06 36.5 148.83 37.15 149.06 35.78 148.06 34.81 149.44 34.61 150.06 33.36"/><polygon class="cls-1" points="143.16 38.98 143.77 40.23 145.15 40.43 144.15 41.4 144.39 42.77 143.16 42.12 141.93 42.77 142.16 41.4 141.16 40.43 142.54 40.23 143.16 38.98"/><polygon class="cls-1" points="134.06 40.95 134.68 42.2 136.06 42.4 135.06 43.37 135.29 44.74 134.06 44.09 132.83 44.74 133.07 43.37 132.07 42.4 133.45 42.2 134.06 40.95"/><polygon class="cls-1" points="125.17 38.99 125.79 40.23 127.16 40.43 126.17 41.4 126.4 42.77 125.17 42.13 123.94 42.77 124.18 41.4 123.18 40.43 124.56 40.23 125.17 38.99"/><polygon class="cls-1" points="118.27 33.37 118.88 34.62 120.26 34.82 119.26 35.79 119.5 37.16 118.27 36.51 117.04 37.16 117.27 35.79 116.28 34.82 117.65 34.62 118.27 33.37"/><polygon class="cls-1" points="114.16 25.35 114.77 26.59 116.15 26.79 115.15 27.76 115.39 29.13 114.16 28.49 112.93 29.13 113.16 27.76 112.17 26.79 113.54 26.59 114.16 25.35"/><polygon class="cls-1" points="114.16 15.96 114.77 17.21 116.15 17.41 115.15 18.38 115.39 19.75 114.16 19.1 112.93 19.75 113.16 18.38 112.17 17.41 113.54 17.21 114.16 15.96"/><polygon class="cls-1" points="118.06 7.93 118.67 9.18 120.05 9.38 119.06 10.35 119.29 11.72 118.06 11.07 116.83 11.72 117.06 10.35 116.07 9.38 117.44 9.18 118.06 7.93"/><polygon class="cls-1" points="125.16 2.31 125.78 3.56 127.15 3.76 126.16 4.73 126.39 6.1 125.16 5.45 123.93 6.1 124.17 4.73 123.17 3.76 124.55 3.56 125.16 2.31"/><path class="cls-1" d="M144.61,25.6h0a.17.17,0,0,0,0,.34h0a.17.17,0,1,0,0-.34Z"/><path class="cls-1" d="M146.51,23.21a1.12,1.12,0,0,0-.42.16.57.57,0,0,1-.24.09.61.61,0,0,0,.07-.32c0-.32,0-.83,0-.83s-.11.31-.26.39-.44.18-.49.28-.26.1-.34.42-.07.28-.13.38a.41.41,0,0,1-.06.11,6.92,6.92,0,0,0,.17-1.37v-.21l.18-.17c.06-.11.86-.39,1-.6s.17-.36.22-.45a1.46,1.46,0,0,0,.13-.58,5.94,5.94,0,0,0-.09-.79,1.14,1.14,0,0,0-.33.25.2.2,0,0,1-.09.09.83.83,0,0,0,0-.22c-.11-.27-.29-.64-.29-.64l-.23.37c-.13.27-.26.29-.29.4s-.17.17-.23.39a1,1,0,0,0,0,.17,11.74,11.74,0,0,0-.23-1.25c0-.12.09-.39.19-.47a.61.61,0,0,0,.18-.52,2,2,0,0,0-.07-.49c0-.13-.42-.67-.39-.83,0,0-.19.44-.27.61a3.16,3.16,0,0,0-.65-.49l-.3-.51s0-.16,0-.27a1.3,1.3,0,0,0,0-.55c-.05-.12-.15-.23-.21-.38a.77.77,0,0,0-.2-.39l-.32-.31-.09.41-.14-.05-.16-.08-.26-.34a.17.17,0,0,0,.07-.14.16.16,0,0,0-.17-.17.17.17,0,1,0,.1.31l.19.3-.2-.11c-.07-.05-.11.46.05.74l-.08,0a1.85,1.85,0,0,0-.59,0c.07,0,.26.2.28.31a.89.89,0,0,0,.31.38,1.71,1.71,0,0,1,.39.29,1.19,1.19,0,0,0,.65.13c.1,0,.18.07.23.05.1.17.19.34.29.5a1.55,1.55,0,0,0-.06.45h0l-.57-.13a1.45,1.45,0,0,0,.23.65.11.11,0,0,0,0,.09.17.17,0,0,0,0,.15.46.46,0,0,0,.24.21L141,20.05a30.29,30.29,0,0,0-.21-5.47c.26-.1.19-.22.19-.22l-.1-.25.08,0a.15.15,0,0,0,.12-.05.19.19,0,0,0,0-.26.6.6,0,0,0-.16-.11l.3-.05.17-.73h0l-.71.24v.31a.81.81,0,0,0-.13-.15.18.18,0,1,0-.24.25.6.6,0,0,0,.27.14v0L137,17.66l-2.37-3.95a6.37,6.37,0,0,0-.39-2.47,1.29,1.29,0,0,0,0-.39.37.37,0,0,0,.23-.22h0s-.17-.21-.27-.31a.34.34,0,0,0,.13,0h0a.18.18,0,1,0,0-.35h0a.74.74,0,0,0-.2,0l.19-.24L134,9.1h0l-.37.66.2.24a.58.58,0,0,0-.2,0,.2.2,0,0,0-.15.06.15.15,0,0,0,0,.22.2.2,0,0,0,.15.06h.12a1.9,1.9,0,0,0-.19.21l0,.06h0v0h0a.3.3,0,0,0,.11.13,5.1,5.1,0,0,0-.55,3.48l-2,3.42-3.58-3.94a.49.49,0,0,0,.29-.14.27.27,0,0,0,.07-.14.16.16,0,0,0,0-.12.17.17,0,0,0-.12-.05.24.24,0,0,0-.14.05.9.9,0,0,0-.14.16v-.31l-.71-.24h0l.17.73.3.05a.6.6,0,0,0-.16.11.21.21,0,0,0-.07.14.15.15,0,0,0,.15.17h0a.15.15,0,0,0,.09,0l-.11.25s-.06.12.19.22a30.29,30.29,0,0,0-.21,5.47l-2.12-1.49a.51.51,0,0,0,.24-.2.2.2,0,0,0,0-.14.18.18,0,0,0,0-.11,1.46,1.46,0,0,0,.22-.65s-.43.11-.56.13h0a1.55,1.55,0,0,0-.06-.45l.28-.5a.36.36,0,0,0,.23-.05,1.25,1.25,0,0,0,.66-.13,1.92,1.92,0,0,1,.38-.29.82.82,0,0,0,.31-.38c0-.11.21-.31.29-.31a1.91,1.91,0,0,0-.6,0l-.07,0c.15-.28.12-.79.05-.74l-.2.11.19-.3a.17.17,0,1,0,.09-.31.17.17,0,0,0-.17.17.16.16,0,0,0,.08.14L126,15l-.17.08-.13.05c0-.18-.1-.41-.1-.41l-.31.31a.79.79,0,0,0-.21.39,2.7,2.7,0,0,1-.21.38,1.3,1.3,0,0,0,0,.55c0,.11,0,.22,0,.27s-.21.34-.3.51a3,3,0,0,0-.66.49l-.26-.61c0,.16-.37.7-.39.83a1.92,1.92,0,0,0-.08.49.64.64,0,0,0,.18.52c.11.08.15.35.19.47-.08.37-.16.79-.22,1.25l0-.17c-.06-.22-.22-.28-.24-.39s-.15-.13-.29-.4-.23-.37-.23-.37-.17.37-.28.64a.57.57,0,0,0,0,.22.38.38,0,0,1-.09-.09,1.15,1.15,0,0,0-.32-.25,3.81,3.81,0,0,0-.09.79,1.66,1.66,0,0,0,.12.58c.06.09.12.24.23.45s.9.49,1,.6a1.65,1.65,0,0,0,.18.17v.21a6.92,6.92,0,0,0,.17,1.37l-.07-.11a1.28,1.28,0,0,1-.13-.38c-.08-.32-.28-.32-.34-.42s-.33-.21-.49-.28-.25-.39-.25-.39,0,.51,0,.83a.61.61,0,0,0,.06.32.57.57,0,0,1-.24-.09,1,1,0,0,0-.41-.16,5.76,5.76,0,0,0,.15.82,1.61,1.61,0,0,0,.31.55c.08.08.18.2.36.38s.65.22,1.17.39a.73.73,0,0,1,.36.28c0,.06,0,.12,0,.16.06.23.14.5.23.8a1,1,0,0,0-.68-.28c-.18,0-.88-.21-.88-.21a1.68,1.68,0,0,1,.37.77,2.38,2.38,0,0,0-.81,0c.07.05.62.52.69.78a2.85,2.85,0,0,0,.44.77c.08,0,.31.34.47.49s.77.08,1,.08a1.71,1.71,0,0,1,.47.15,5,5,0,0,0,.66.68,1.76,1.76,0,0,1-.57-.37c-.1-.14,0,.45.13.65A1,1,0,0,1,125,30c-.17-.14,0,.46.16.64.4.35.36.41.43.43a2.33,2.33,0,0,1-.95.1c-.19-.1.21.26.44.35s.3.35.67.47a2.89,2.89,0,0,0,1,.23,4,4,0,0,1,.57-.14,10.54,10.54,0,0,1,1-.38,11.21,11.21,0,0,0,1.26.69l.07,0-.15,0a3.11,3.11,0,0,1-1,.1c-.14-.07.16.34.35.5a2.81,2.81,0,0,1-.87.06c-.21,0,.41.56.66.63h0a1.63,1.63,0,0,1-.48.1c-.21,0,.69.58.93.54.79-.11,1.53.15,1.9,0s.52-.22.68-.27.25-.21.36-.28a1.27,1.27,0,0,1,.4-.32l0,0a6.94,6.94,0,0,0,.83,0,1.41,1.41,0,0,0-.34.2c-.41.13-.74.24-.84.29A7.82,7.82,0,0,0,131,35.1l.77-.05c.1,0,.33-.47.44-.55a4.64,4.64,0,0,1,.45-.22,1.06,1.06,0,0,0,.2,1.33c-.17-.2,0-.57,0-.57l.36.23a1,1,0,0,1,.49-1.45l.07,0a.35.35,0,0,0,.57,0l.14,0a1,1,0,0,1,.42,1.41l.37-.23s.2.37,0,.57a1.06,1.06,0,0,0,.22-1.31l.4.2c.1.08.33.55.44.55l.77.05A7.9,7.9,0,0,0,135.8,34a6.88,6.88,0,0,0-.77-.27,1.51,1.51,0,0,0-.36-.22,7,7,0,0,0,.83,0h0a1.41,1.41,0,0,1,.38.31c.1.07.19.22.36.28s.35.14.68.27,1.11-.12,1.89,0c.25,0,1.15-.55.93-.54a1.64,1.64,0,0,1-.47-.1h0c.24-.07.87-.67.66-.63a2.8,2.8,0,0,1-.87-.06c.19-.16.49-.57.35-.5a3,3,0,0,1-.95-.1l-.15,0,.07,0a12.16,12.16,0,0,0,1.26-.69c.43.06.81.36,1,.38a3.79,3.79,0,0,1,.56.14,2.85,2.85,0,0,0,1-.23c.37-.12.33-.35.67-.47s.63-.45.45-.35a2.32,2.32,0,0,1-1-.1c.06,0,0-.08.43-.43.18-.18.33-.78.16-.64a1,1,0,0,1-.45.13c.12-.2.23-.79.13-.65a1.76,1.76,0,0,1-.57.37,5.64,5.64,0,0,0,.66-.68,1.71,1.71,0,0,1,.47-.15c.21,0,.82.08,1-.08a5.84,5.84,0,0,1,.47-.49,2.87,2.87,0,0,0,.43-.77,2.6,2.6,0,0,1,.7-.78,2.38,2.38,0,0,0-.81,0,1.68,1.68,0,0,1,.37-.77s-.7.18-.88.21a1,1,0,0,0-.68.28c.09-.3.16-.57.22-.8l0-.16a.64.64,0,0,1,.36-.28c.51-.17,1-.2,1.17-.39l.35-.38a1.61,1.61,0,0,0,.31-.55A5.88,5.88,0,0,0,146.51,23.21Zm-1.86-.5a6,6,0,0,1-.16,1.05,1.29,1.29,0,0,0-.11-.42c-.08-.15-.18-.15-.23-.31s-.23-.21-.34-.33a1.82,1.82,0,0,0-.31-.28,2.76,2.76,0,0,0-.05,1,1,1,0,0,1,0,.15l-.15-.05c-.13.3,0,.61.08.9a1.34,1.34,0,0,0,.18.36c.05.1,0,.2.08.28s.16.08.28.19a1.21,1.21,0,0,0,.06.4c-.1.34-.21.67-.33,1a.81.81,0,0,0-.12-.36,1.05,1.05,0,0,1-.23-.41c-.11-.28-.31-.28-.34-.57a4.71,4.71,0,0,0-.1.62,1.61,1.61,0,0,0,0,.54.9.9,0,0,1,0,.35,1.15,1.15,0,0,0-.1-.45.46.46,0,0,1-.06-.31,3.35,3.35,0,0,1-.39.52l-.1-.16c1.36-2.37,1-6.42,1-7,.22-.05.18-.16.18-.16l0-.26.06,0h.05a.14.14,0,0,0,.09,0,.15.15,0,0,0,.07-.12h0a.83.83,0,0,0,.28.22c.18.05.34.14.36.21h0a12.22,12.22,0,0,1,.26,1.47h0c-.21-.23-.26-.67-.72-.91a1.55,1.55,0,0,1,0,.32,1.45,1.45,0,0,0,0,.4,1.18,1.18,0,0,1-.36-.35,2.16,2.16,0,0,0,.11,1c.18.34.18.52.38.59a.86.86,0,0,1,.31.19.73.73,0,0,0,.32.12s0,0,.06,0a.75.75,0,0,0,0,.16C144.66,22.47,144.66,22.6,144.65,22.71Zm-18-2.79,1.37,1a4.53,4.53,0,0,0,.2,1.52l-1.14,1.91A8.86,8.86,0,0,1,126.65,19.92Zm-2.12-1.12a.38.38,0,0,1,.24-.18.47.47,0,0,1-.09.29.14.14,0,0,1-.08.05s0,0-.06,0a.07.07,0,0,1,0-.06A.16.16,0,0,1,124.53,18.8ZM129,15.62l1.09,1.21a5,5,0,0,0,.22,2l-1,1.66C129.12,20,128.63,18.6,129,15.62Zm4.26-.78a4.47,4.47,0,0,1,1.46,0l.16.26a4,4,0,0,0-1.78,0Zm.13-.21.6-1,.61,1A4.9,4.9,0,0,0,133.43,14.63Zm-.42.7a3.86,3.86,0,0,1,2.05,0l.16.28a3.31,3.31,0,0,0-1.17-.2,3.54,3.54,0,0,0-1.21.21Zm-.33.56a3.42,3.42,0,0,1,2.7,0l4.21,7h-1.54a1.53,1.53,0,0,1-.21-.14.18.18,0,0,0-.07-.05.46.46,0,0,0-.34-.07.48.48,0,0,0-.18.07l-.17.1h0l-.08,0a1.92,1.92,0,0,1-.38-.25l-.12-.08a.37.37,0,0,0-.23-.05.41.41,0,0,0-.16,0,.88.88,0,0,0-.22.1l-.13.09a0,0,0,0,1,0,0h0a1.19,1.19,0,0,0-.25-.13l-.22-.11a1.94,1.94,0,0,1-.29-.21l-.1-.07a.73.73,0,0,0-.25-.08h-.17a.92.92,0,0,0-.23.09l-.11.07V19.75c.26,0,.46-.1.46-.21a2.09,2.09,0,0,0-.44-1,.46.46,0,0,0-.51,0s-.31.19-.15.45c0,0,0,.08.17,0a.17.17,0,0,0,.12-.14v.06c0,.09-.12.14-.13.14a2.56,2.56,0,0,0-.13.5c0,.11.2.2.46.21v2.47h0l-.31-.22-.11-.08a.75.75,0,0,0-.24-.08.74.74,0,0,0-.21,0,1.17,1.17,0,0,0-.24.09,1.64,1.64,0,0,0-.22.14h0l-.1-.05-.14-.07-.18-.08a2.76,2.76,0,0,1-.49-.32.08.08,0,0,0,0,0,.73.73,0,0,0-.39-.15h-.12a.88.88,0,0,0-.27.06,1.28,1.28,0,0,0-.28.16,2.26,2.26,0,0,0-.29.23,3.73,3.73,0,0,0-.32.36l-.27.37v0l-.19.21a1.42,1.42,0,0,1-.13.12h-.86Zm6,4.62-1-1.67a5,5,0,0,0,.22-2L139,15.62C139.45,18.6,139,20,138.72,20.51Zm4.58-1.89a.38.38,0,0,1,.24.18.16.16,0,0,1,0,.09.09.09,0,0,1,0,.06.06.06,0,0,1-.07,0,.14.14,0,0,1-.08-.05A.47.47,0,0,1,143.3,18.62ZM141,24.31l-1.15-1.9a4.55,4.55,0,0,0,.2-1.52l1.37-1A8.89,8.89,0,0,1,141,24.31Zm-14.74,2.3,1.08-1.79h13l-.07,0a1.7,1.7,0,0,1-.22-.15c-.13-.1-.25-.21-.37-.32l-.5-.5c-.11-.11-.21-.22-.31-.34l-.15-.14a1.56,1.56,0,0,0-.28-.23l-.14-.07h1.37l2.15,3.59ZM128.41,23h.8a4.37,4.37,0,0,1-.48.37l0,0-.26.18-.39.32-.37.35Zm5.6-.49.09,0,.1.05a1.45,1.45,0,0,1,.26.17,3.24,3.24,0,0,1,.38.36l.54.58c.08.08.15.16.23.23s.4.39.6.57l0,0h-1s0,0,0,0a.18.18,0,0,1-.07,0l-.41-.35c-.16-.13-.31-.28-.46-.42-.32-.32-.63-.64-.93-1l-.16-.18a3,3,0,0,0-.37-.34h0a.72.72,0,0,1,.21-.12.5.5,0,0,1,.13,0,.35.35,0,0,1,.22,0l.1.06a1.08,1.08,0,0,0,.24.18A2.14,2.14,0,0,0,134,22.53Zm4.09.68.05,0,.11.05a1.89,1.89,0,0,1,.27.2l.15.16L139,24l.27.28c.11.11.22.22.34.32l0,0H139l-.31-.27a3.83,3.83,0,0,1-.29-.28c-.21-.21-.42-.42-.62-.64l-.12-.14a2.69,2.69,0,0,0-.32-.27h0a.69.69,0,0,1,.15-.07.22.22,0,0,1,.16,0l.05,0A1.88,1.88,0,0,0,138.1,23.21Zm-.76.07a2.18,2.18,0,0,1,.21.22L138,24l.43.42.17.16h-.82l-.16-.13a5.22,5.22,0,0,1-.43-.39L137,23.8c-.22-.21-.42-.43-.62-.65L136.2,23l-.24-.22h0l.17-.1.13,0a.31.31,0,0,1,.13,0l.07,0a2.8,2.8,0,0,0,.4.27L137,23a.39.39,0,0,1,.11.06A1.51,1.51,0,0,1,137.34,23.28Zm-1.24,0,.35.38.32.33c.19.19.38.37.58.54l0,0h-.74l-.16-.12L136,24l-.26-.25c-.23-.23-.45-.46-.66-.7l-.15-.16a2.36,2.36,0,0,0-.42-.36l-.23-.14h0a.67.67,0,0,1,.21-.09h.11a.37.37,0,0,1,.14,0l.08.06a2.29,2.29,0,0,0,.51.32.2.2,0,0,0,.08,0l.13.06.27.19Zm-3.17-.59.2.21.22.25.41.42c.24.25.49.5.75.73l.3.27h-7.09a.94.94,0,0,0,.1-.1l.33-.31c.13-.12.27-.23.41-.34l.27-.19.08-.05a6.32,6.32,0,0,0,.64-.52c.11-.11.22-.22.32-.34s0,0,0,0a3.28,3.28,0,0,1,.27-.38,3.33,3.33,0,0,1,.25-.28,2.42,2.42,0,0,1,.31-.25.94.94,0,0,1,.22-.12l.17,0a.46.46,0,0,1,.28.06l.11.07.25.19.31.19.18.07.11.06a1.75,1.75,0,0,1,.29.18Zm-1.6,4.4a3.29,3.29,0,0,0,1.14.55,4.29,4.29,0,0,1-3.59-.55Zm2.44,1.45s.17-.89.26-1.45h0c.1.56.27,1.45.27,1.45a1,1,0,0,1-.27.83A1,1,0,0,1,133.77,28.53Zm3-1.45h2.44a4.29,4.29,0,0,1-3.59.55A3.42,3.42,0,0,0,136.75,27.08ZM143,18.31a.12.12,0,0,1,0-.1.08.08,0,0,1,0,0h0a.87.87,0,0,1,.21.22.14.14,0,0,1,0,.09A.46.46,0,0,1,143,18.31ZM141.05,14a.11.11,0,0,1-.15,0,.47.47,0,0,1-.15-.24h0a.38.38,0,0,1,.26.12A.11.11,0,0,1,141.05,14Zm-.2-.71.27-.09h0l-.07.28-.22,0h0Zm-.52.06a.09.09,0,0,1,.06,0,.14.14,0,0,1,.1,0,.38.38,0,0,1,.14.24h0a.39.39,0,0,1-.22-.12A.1.1,0,0,1,140.33,13.38Zm-6-3.33h0c.07,0,.12,0,.12.09s-.05.09-.12.09a.4.4,0,0,1-.28-.09A.33.33,0,0,1,134.37,10.05ZM134,9.51h0l.14.25-.14.18h0l-.14-.18Zm-.37.73h0a.1.1,0,0,1-.09,0,.07.07,0,0,1,0-.11.12.12,0,0,1,.09,0,.38.38,0,0,1,.29.09A.44.44,0,0,1,133.67,10.24Zm.3,1.7a2.67,2.67,0,0,0,.29-.69,3.75,3.75,0,0,1-.09,1.65l-.14-.22-.43.72A2.45,2.45,0,0,1,134,11.94Zm-6.38,1.45a.12.12,0,0,1,.09,0,.09.09,0,0,1,.06,0,.11.11,0,0,1,0,0,.13.13,0,0,1-.05.09.37.37,0,0,1-.26.13h0A.34.34,0,0,1,127.59,13.39Zm-.64-.16h0l.28.09v.22h0l-.22,0Zm.13.82a.07.07,0,0,1-.06,0,.08.08,0,0,1,0-.06.12.12,0,0,1,0-.09.38.38,0,0,1,.25-.13h0c0,.14-.15.26-.15.27Zm-2,4.26a.41.41,0,0,1-.24.18.11.11,0,0,1,0-.08.69.69,0,0,1,.22-.23h0a.08.08,0,0,1,0,0A.1.1,0,0,1,125.1,18.31Zm-1.68,4a.75.75,0,0,0,0-.16.1.1,0,0,1,.07,0,.69.69,0,0,0,.31-.12,1.12,1.12,0,0,1,.31-.19c.2-.07.2-.25.39-.59a2.1,2.1,0,0,0,.1-1,1.24,1.24,0,0,1-.35.35,2,2,0,0,0,0-.4,1.55,1.55,0,0,1,0-.32c-.46.24-.51.68-.72.91h0a10.52,10.52,0,0,1,.26-1.47h0c0-.07.18-.16.36-.21a.64.64,0,0,0,.27-.22h0a.19.19,0,0,0,.07.12.16.16,0,0,0,.09,0h0l.06,0,0,.26s0,.11.18.16c0,.56-.36,4.61,1,7l-.09.16a3.46,3.46,0,0,1-.4-.52.5.5,0,0,1,0,.31,1,1,0,0,0-.1.45.92.92,0,0,1-.05-.35,1.55,1.55,0,0,0,.05-.54c0-.28-.1-.62-.1-.62,0,.29-.24.29-.34.57a1.39,1.39,0,0,1-.23.41.83.83,0,0,0-.13.36c-.11-.34-.22-.67-.32-1a1.21,1.21,0,0,0,.06-.4c.12-.11.23-.12.28-.19s0-.18.08-.28a2.41,2.41,0,0,0,.18-.36c0-.29.21-.6.07-.9l-.14.05a.46.46,0,0,1,0-.15,3,3,0,0,0,0-1,2.17,2.17,0,0,0-.32.28c-.1.12-.28.18-.33.33s-.16.16-.23.31a1.09,1.09,0,0,0-.12.42,8.78,8.78,0,0,1-.16-1.05ZM135.08,33a1.41,1.41,0,0,0-.66.17v0a12.55,12.55,0,0,1,.9-1.33A1.13,1.13,0,0,1,135.08,33Zm-1.38.17A1.47,1.47,0,0,0,133,33a1.15,1.15,0,0,1-.23-1.18,12.91,12.91,0,0,1,.91,1.33Zm8-3.26a.16.16,0,0,0,0-.08c0-.12.14-.36.11-.49a3.7,3.7,0,0,0-.16-.61c-.07-.19-.25-.62-.44-.7,0,0-.15.49-.2.67a1.63,1.63,0,0,1-.18.49,1.07,1.07,0,0,0-.12.19,1.29,1.29,0,0,1,0-.34c0-.34-.51-.88-.51-.88a1.94,1.94,0,0,1-.26.88,1.71,1.71,0,0,0-.28.74.93.93,0,0,1-.21.49c-.16.21,0,1.09,0,1.19-.35.22-.71.42-1,.59l-.34.16s.05,0,.07-.07a1.77,1.77,0,0,0,.51-.79c.16,0-.22-.07-.43-.05.12-.2.3-.46.42-.69s-.83.06-.83.06l-.25.1a3.62,3.62,0,0,0,.15-.65c0-.08-.39.05-.7.18a4.5,4.5,0,0,0-.65.47c-.28.18-.32.62-.44.83a1.37,1.37,0,0,0-.17.35.4.4,0,0,0-.18-.35h-.08l-.3-.05a.67.67,0,0,0-.7.29,8.12,8.12,0,0,0-.34,1.09l-.12,0-.12,0a8.12,8.12,0,0,0-.34-1.09.68.68,0,0,0-.7-.29,2.19,2.19,0,0,0-.31.05h-.08c-.09.05-.18.18-.19.48a1.16,1.16,0,0,0-.19-.48c-.13-.21-.16-.65-.44-.83a5.13,5.13,0,0,0-.65-.47c-.31-.13-.7-.26-.71-.18a3.62,3.62,0,0,0,.15.65l-.25-.1s-.92-.24-.83-.06.3.49.43.69c-.22,0-.59,0-.43.05a1.67,1.67,0,0,0,.51.79l.07.07-.34-.16a11,11,0,0,1-1-.59c0-.1.19-1,0-1.19a.86.86,0,0,1-.21-.49,1.85,1.85,0,0,0-.28-.74,1.82,1.82,0,0,1-.26-.88s-.54.54-.52.88,0,.27,0,.34a1.21,1.21,0,0,0-.11-.19,1.93,1.93,0,0,1-.19-.49c0-.18-.2-.67-.2-.67-.18.08-.36.51-.43.7a2.4,2.4,0,0,0-.16.61,1.64,1.64,0,0,0,.1.49.59.59,0,0,0,0,.08,4,4,0,0,1-1-1,.52.52,0,0,1,.11-.27,2,2,0,0,0,.38-.59,1.2,1.2,0,0,0,0-.47,3.74,3.74,0,0,1,.08-.46v0h.43a6.91,6.91,0,0,0,6.8.89.23.23,0,0,1,0,.12s-.7.95.88,1.27h0c1.59-.32.89-1.27.89-1.27a.27.27,0,0,1,0-.12,6.88,6.88,0,0,0,6.8-.89h.44v0a4.23,4.23,0,0,1,.07.46,1.44,1.44,0,0,0,0,.47,1.83,1.83,0,0,0,.39.59.63.63,0,0,1,.11.27A4.21,4.21,0,0,1,141.65,29.94Z"/><path class="cls-1" d="M139.13,30.83a.15.15,0,1,0,0,.3.15.15,0,0,0,0-.3Z"/><path class="cls-1" d="M140,31.9a.16.16,0,0,0-.15.16.15.15,0,0,0,.15.16.16.16,0,0,0,.16-.16A.17.17,0,0,0,140,31.9Z"/><path class="cls-1" d="M142,28.5a.16.16,0,0,0-.16.16.17.17,0,0,0,.16.16.16.16,0,0,0,.15-.16A.15.15,0,0,0,142,28.5Z"/><path class="cls-1" d="M143.13,29.28a.18.18,0,0,0,.17.17.17.17,0,0,0,0-.34A.18.18,0,0,0,143.13,29.28Z"/><path class="cls-1" d="M143.53,25.63a.16.16,0,0,0,.17-.17.17.17,0,0,0-.17-.17.18.18,0,0,0-.17.17A.17.17,0,0,0,143.53,25.63Z"/><path class="cls-1" d="M144.05,22.2a.16.16,0,0,0-.17.17.17.17,0,0,0,.34,0A.16.16,0,0,0,144.05,22.2Z"/><path class="cls-1" d="M145,19.42a.17.17,0,1,0,0-.34.17.17,0,0,0,0,.34Z"/><path class="cls-1" d="M143.79,19.73a.17.17,0,1,0-.17-.17A.17.17,0,0,0,143.79,19.73Z"/><path class="cls-1" d="M142.77,17a.16.16,0,0,0-.17-.16.17.17,0,0,0-.17.16.17.17,0,0,0,.17.17A.16.16,0,0,0,142.77,17Z"/><path class="cls-1" d="M143.51,16.4a.16.16,0,0,0,.17-.17.18.18,0,0,0-.17-.17.17.17,0,0,0-.17.17A.16.16,0,0,0,143.51,16.4Z"/><path class="cls-1" d="M145.22,22.4a.16.16,0,0,0,.17.16.16.16,0,1,0,0-.32A.16.16,0,0,0,145.22,22.4Z"/><path class="cls-1" d="M129,30.83a.15.15,0,1,0,0,.3.15.15,0,1,0,0-.3Z"/><path class="cls-1" d="M128.23,32.06a.16.16,0,1,0-.31,0,.16.16,0,0,0,.15.16A.16.16,0,0,0,128.23,32.06Z"/><path class="cls-1" d="M126,28.5a.16.16,0,0,0-.16.16.16.16,0,1,0,.31,0A.16.16,0,0,0,126,28.5Z"/><path class="cls-1" d="M124.77,29.45a.17.17,0,1,0,0-.34.17.17,0,1,0,0,.34Z"/><path class="cls-1" d="M124.55,25.29a.18.18,0,0,0-.18.17.17.17,0,0,0,.18.17.18.18,0,0,0,.17-.17A.18.18,0,0,0,124.55,25.29Z"/><path class="cls-1" d="M123.65,25.77a.16.16,0,0,0-.17-.17.17.17,0,0,0,0,.34A.16.16,0,0,0,123.65,25.77Z"/><path class="cls-1" d="M124,22.54a.18.18,0,0,0,.17-.17.17.17,0,0,0-.17-.17.17.17,0,0,0-.18.17A.18.18,0,0,0,124,22.54Z"/><path class="cls-1" d="M123.07,19.42a.17.17,0,1,0,0-.34.17.17,0,0,0,0,.34Z"/><path class="cls-1" d="M124.29,19.39a.17.17,0,1,0,0,.34.17.17,0,0,0,0-.34Z"/><path class="cls-1" d="M125.3,17a.17.17,0,0,0,.34,0,.17.17,0,0,0-.34,0Z"/><path class="cls-1" d="M124.57,16.4a.17.17,0,0,0,.17-.17.18.18,0,0,0-.17-.17.17.17,0,0,0-.17.17A.16.16,0,0,0,124.57,16.4Z"/><path class="cls-1" d="M122.86,22.4a.17.17,0,1,0-.17.16A.17.17,0,0,0,122.86,22.4Z"/><path class="cls-1" d="M132,20a.11.11,0,0,1,.13.07h0l0-.1.29-.13,0-.06L132,20Z"/><path class="cls-1" d="M131.93,19.48h-.06l0,.23.26,0v0a.13.13,0,0,1-.07-.08.12.12,0,0,1,.08-.12c.06,0,.11,0,.12.07a.08.08,0,0,1-.05.11l0,.06a.14.14,0,0,0,.09-.17.16.16,0,0,0-.2-.13.16.16,0,0,0-.11.18.12.12,0,0,0,0,.08H132Z"/><path class="cls-1" d="M132,19.1a.1.1,0,0,0,.12-.08l0-.1c0-.08,0-.1.09-.09s.08.08.07.13,0,.12-.12.11v.06a.16.16,0,0,0,.13,0,.28.28,0,0,0,.05-.14c0-.08,0-.18-.13-.19a.1.1,0,0,0-.12.09L132,19s0,.05-.06.05-.08-.07-.07-.11a.1.1,0,0,1,.1-.11v-.06s-.14,0-.16.17S131.88,19.1,132,19.1Z"/><polygon class="cls-1" points="132.44 18.39 132.39 18.38 132.3 18.64 132.15 18.59 132.23 18.35 132.18 18.33 132.1 18.58 131.96 18.53 132.05 18.27 131.99 18.25 131.89 18.58 132.33 18.72 132.44 18.39"/><path class="cls-1" d="M132.5,18.29l-.17-.11.08-.12a.14.14,0,0,0,0-.2.1.1,0,0,0-.09,0,.13.13,0,0,0-.09.07l-.11.17.4.25Zm-.34-.22.06-.11s0-.05.07,0h0a.07.07,0,0,1,0,.11l-.06.1Z"/><polygon class="cls-1" points="132.47 17.63 132.77 17.92 132.81 17.87 132.52 17.59 132.63 17.47 132.59 17.43 132.33 17.71 132.36 17.75 132.47 17.63"/><polygon class="cls-1" points="133.02 17.7 132.74 17.33 132.69 17.37 132.97 17.74 133.02 17.7"/><polygon class="cls-1" points="133.4 17.48 133.37 17.43 133.12 17.56 133.05 17.43 133.28 17.31 133.25 17.26 133.02 17.37 132.96 17.25 133.2 17.12 133.18 17.07 132.88 17.23 133.09 17.64 133.4 17.48"/><path class="cls-1" d="M133.51,17.45l-.06-.28s0-.06,0-.11l.21.36.06,0,.05-.4a.65.65,0,0,1,0,.11l.06.26h.06l-.1-.46-.09,0,0,.41-.22-.35h-.09l.11.46Z"/><path class="cls-1" d="M134.15,17.37a.14.14,0,0,0,.17-.12.13.13,0,0,0-.08-.12.1.1,0,0,0,.06-.1c0-.06,0-.12-.12-.12H134l0,.47ZM134,17l.11,0c.06,0,.09,0,.09.06s0,.07-.1.06H134Zm.11.21s.09,0,.09.07a.08.08,0,0,1-.09.08H134v-.15Z"/><polygon class="cls-1" points="133.97 16.9 133.97 16.9 133.97 16.9 133.97 16.9"/><path class="cls-1" d="M134.48,17.22l.15,0c.07,0,.06.07.06.11a.29.29,0,0,0,0,.11l.08,0h0s0,0,0,0v-.08c0-.06,0-.08,0-.1s.08,0,.09-.09,0-.13-.11-.16l-.21-.07-.12.46h.06Zm.07-.2.14.05s.07,0,.05.09-.06.05-.1.05l-.13,0Z"/><polygon class="cls-1" points="135.08 17.7 135.1 17.66 134.87 17.52 134.94 17.38 135.16 17.51 135.19 17.46 134.97 17.33 135.04 17.21 135.28 17.35 135.31 17.3 135.01 17.13 134.78 17.53 135.08 17.7"/><path class="cls-1" d="M135.37,18a.21.21,0,0,0,.31,0,.2.2,0,0,0,0-.3l-.12-.14-.36.3Zm.3-.26c.05.06,0,.12,0,.2a.14.14,0,0,1-.21,0l-.07-.08.25-.21Z"/><polygon class="cls-1" points="135.68 18.5 135.74 18.48 135.61 18.23 135.75 18.16 135.86 18.39 135.91 18.36 135.79 18.14 135.93 18.07 136.05 18.32 136.1 18.3 135.94 17.99 135.53 18.2 135.68 18.5"/><path class="cls-1" d="M136.08,18.8l-.32,0v.06l.46-.06v-.05c-.07,0-.08,0-.1-.1h-.05Z"/><path class="cls-1" d="M136.11,19.07a.09.09,0,0,0-.09.07.12.12,0,0,0-.11-.1.14.14,0,0,0-.11.05.15.15,0,0,0,0,.11.13.13,0,0,0,.13.15.1.1,0,0,0,.12-.06.08.08,0,0,0,.09.06c.06,0,.12,0,.12-.13A.12.12,0,0,0,136.11,19.07Zm-.21.22c-.07,0-.08-.05-.08-.09s.05-.08.09-.08a.07.07,0,0,1,.07.09A.07.07,0,0,1,135.9,19.29Zm.21,0a.1.1,0,0,1-.07-.08.08.08,0,0,1,.07-.07.06.06,0,0,1,.06.08C136.17,19.28,136.14,19.29,136.11,19.29Z"/><path class="cls-1" d="M136.05,19.45v.06s.1,0,.08.11-.07.09-.1.07-.07-.05-.08-.1l0-.07a.21.21,0,0,0-.16-.15l-.07.31h.05l.06-.24s0,0,.07.09v.05c0,.09.05.15.12.16a.14.14,0,0,0,.17-.1A.15.15,0,0,0,136.05,19.45Z"/><path class="cls-1" d="M136,19.88l-.05.1-.29-.14,0,.06.42.19,0,0C136,20,136,20,136,19.9Z"/><path class="cls-1" d="M133.47,21.52h.05l.34-1.4h-.05l-.34,1.39Z"/><path class="cls-1" d="M133.42,20.92l.05,0,.28-.84h0l-.28.82Z"/><path class="cls-1" d="M132.94,21.43l0,0,.66-1.39,0,0-.65,1.37Z"/><path class="cls-1" d="M132.83,21.2l.72-1.18-.05,0-.71,1.18Z"/><path class="cls-1" d="M132.39,21.22h0l0,0,1-1.29,0,0Z"/><path class="cls-1" d="M132.46,20.9l.9-1h0l0,0-.9,1Z"/><path class="cls-1" d="M133.28,19.83l0,0L131.91,21l0,0,1.33-1.17Z"/><path class="cls-1" d="M133.21,19.74h0l0,0-.7.5h0l0,.05Z"/><path class="cls-1" d="M133.14,19.65l0,0-.49.27,0,.05Z"/><path class="cls-1" d="M132.56,19.74l0,.05.52-.23,0,0Z"/><polygon class="cls-1" points="132.5 19.59 132.51 19.63 133.04 19.46 133.05 19.46 133.04 19.41 132.5 19.59"/><path class="cls-1" d="M133,19.36s0,0,0-.05l-.56.12,0,.05Z"/><path class="cls-1" d="M132.43,19.26v0l.57-.06V19.2Z"/><path class="cls-1" d="M132.42,19.14H133v-.05h-.57Z"/><path class="cls-1" d="M132.43,19,133,19h0V19l-.56,0h0Z"/><path class="cls-1" d="M132.44,18.81l.57.12a.11.11,0,0,1,0-.05l-.57-.12Z"/><path class="cls-1" d="M132.49,18.66l.53.17h0l0-.05-.54-.18Z"/><path class="cls-1" d="M132.56,18.46l0,0,.53.23s0,0,0-.05l-.52-.22Z"/><path class="cls-1" d="M132.61,18.35l.5.28h0s0,0,0-.05l-.51-.27Z"/><path class="cls-1" d="M132.71,18.21l.45.33,0,0-.47-.33Z"/><path class="cls-1" d="M132.85,18l0,0,.42.36h0l0,0-.41-.36Z"/><path class="cls-1" d="M133,17.93l0,0,.39.41,0,0-.37-.39Z"/><path class="cls-1" d="M133.1,17.82l0,0,.34.43,0,0-.34-.43Z"/><path class="cls-1" d="M133.26,17.73l0,0,.28.47h0l0,0-.27-.47Z"/><path class="cls-1" d="M133.4,17.67l-.05,0,.23.49,0,0-.23-.48Z"/><path class="cls-1" d="M133.56,17.61l-.05,0,.18.51h.05l-.17-.51Z"/><path class="cls-1" d="M133.73,17.56h0l.11.54h.05l-.11-.53Z"/><path class="cls-1" d="M133.91,18.1H134l-.06-.55h-.05Z"/><path class="cls-1" d="M134.05,17.53H134v.56h.05v-.56Z"/><path class="cls-1" d="M134.11,18.09h0l.05-.56h-.05Z"/><rect class="cls-1" x="134.02" y="17.81" width="0.56" height="0.05" transform="translate(90.96 146.2) rotate(-78.91)"/><path class="cls-1" d="M134.54,17.63l0,0-.17.51v0h0l.18-.51Z"/><path class="cls-1" d="M134.7,17.69l0,0-.22.49h0l.05,0,.22-.49Z"/><polygon class="cls-1" points="134.79 17.73 134.52 18.2 134.51 18.21 134.56 18.24 134.83 17.75 134.79 17.73"/><path class="cls-1" d="M134.6,18.26h0l0,0,.33-.44h0l0,0Z"/><polygon class="cls-1" points="134.69 18.34 134.72 18.37 135.09 17.97 135.1 17.96 135.06 17.92 134.69 18.34"/><rect class="cls-1" x="134.71" y="18.22" width="0.56" height="0.05" transform="translate(22.28 94.74) rotate(-41.86)"/><path class="cls-1" d="M134.85,18.49h0l0,0,.44-.32h0l0,0Z"/><path class="cls-1" d="M134.9,18.58h0l0,.05.48-.28h0l0-.05Z"/><path class="cls-1" d="M135,18.68h0a.08.08,0,0,0,0,0l.5-.22h0l0-.05Z"/><path class="cls-1" d="M135,18.78a.43.43,0,0,0,0,0l.51-.17h0l0,0Z"/><path class="cls-1" d="M135,18.88s0,0,0,0l.54-.12v-.05Z"/><path class="cls-1" d="M135,19s0,0,0,.05l.53-.05h0v-.05Z"/><path class="cls-1" d="M135.05,19.11v0h.55v-.05H135S135.05,19.1,135.05,19.11Z"/><path class="cls-1" d="M135,19.3a.09.09,0,0,0,0,.05l.53.12v0Z"/><path class="cls-1" d="M135.58,19.3v-.05l-.55-.06h0v0l.54.06Z"/><path class="cls-1" d="M135.5,19.62l0,0-.51-.17h0s0,0,0,0l.51.17Z"/><path class="cls-1" d="M135,19.51l0,0,.49.22h0l0-.05-.49-.22Z"/><path class="cls-1" d="M134.9,19.64l.46.27h0l0,0-.47-.27A.08.08,0,0,0,134.9,19.64Z"/><path class="cls-1" d="M134.84,19.73l.68.5,0,0-.68-.5Z"/><path class="cls-1" d="M134.8,19.78s0,0,0,0L136,21h0l0,0-1.28-1.17Z"/><path class="cls-1" d="M134.69,19.89l.86,1,0,0-.86-1h0l0,0Z"/><path class="cls-1" d="M134.61,20l1,1.3,0,0-1-1.3Z"/><path class="cls-1" d="M134.51,20l.68,1.16v0l0,0L134.55,20Z"/><path class="cls-1" d="M134.42,20.06l.63,1.37h0l0,0L134.46,20Z"/><path class="cls-1" d="M134.31,20.1l.27.81h0l-.27-.83Z"/><path class="cls-1" d="M134.21,20.12l.32,1.4h.05l-.32-1.4Z"/><path class="cls-1" d="M129.31,29.38s-.16.18-.07.34c0,0,.15.2.39,0C129.63,29.72,129.25,29.72,129.31,29.38Z"/><path class="cls-1" d="M138.44,29.72c.24.2.39,0,.39,0,.09-.16-.07-.34-.07-.34C138.82,29.72,138.44,29.72,138.44,29.72Z"/><path class="cls-1" d="M130.74,29.19l-.08-.05-.21.34.09.05a.18.18,0,0,0,.27-.07A.19.19,0,0,0,130.74,29.19Z"/><path class="cls-1" d="M131.41,29.54a.2.2,0,0,0-.27.1.2.2,0,1,0,.36.16A.19.19,0,0,0,131.41,29.54Z"/><path class="cls-1" d="M133.73,30.14a.19.19,0,0,0-.21.19.2.2,0,0,0,.18.22.21.21,0,0,0,.21-.2A.19.19,0,0,0,133.73,30.14Z"/><path class="cls-1" d="M135.61,30.16l-.11,0,0,.18.12,0a.09.09,0,0,0,.06-.11A.09.09,0,0,0,135.61,30.16Z"/><path class="cls-1" d="M135.64,30a.07.07,0,0,0-.09-.06l-.11,0,0,.15.11,0A.09.09,0,0,0,135.64,30Z"/><path class="cls-1" d="M136.37,29.69h-.07l-.08,0,.07.17.1,0a.09.09,0,0,0,.05-.12A.07.07,0,0,0,136.37,29.69Z"/><path class="cls-1" d="M137.06,29.44l0,.17.14-.07-.13-.12-.06-.06h0Z"/><path class="cls-1" d="M138.57,29.48l-.17-.07a.68.68,0,0,1,.36,0l-.2-.18A1.34,1.34,0,0,0,137,29a5.68,5.68,0,0,1-6,0,1.34,1.34,0,0,0-1.52.2l-.2.18a.68.68,0,0,1,.36,0l-.16.07c.21.08.12.24.12.24l.26-.23a9,9,0,0,1,1.14.57,5.86,5.86,0,0,0,3,.76h0a5.84,5.84,0,0,0,3-.76,9.88,9.88,0,0,1,1.14-.57l.26.23S138.35,29.56,138.57,29.48Zm-8.06.11-.15-.09.27-.46.15.09a.25.25,0,0,1,.09.37A.24.24,0,0,1,130.51,29.59Zm.37.21-.06,0,.25-.47.06,0Zm.32.17a.27.27,0,0,1-.12-.37.26.26,0,0,1,.36-.12.27.27,0,0,1,.13.36A.27.27,0,0,1,131.2,30Zm.74-.16a.17.17,0,0,0-.09-.08.09.09,0,0,0-.12,0c0,.1.21.16.15.32a.15.15,0,0,1-.21.08.23.23,0,0,1-.14-.13l.06,0a.2.2,0,0,0,.11.1.09.09,0,0,0,.11,0c0-.11-.21-.18-.15-.33a.16.16,0,0,1,.21-.08.19.19,0,0,1,.12.11Zm.44.59a.19.19,0,0,1-.15-.24l.09-.33.07,0-.09.33a.12.12,0,0,0,.1.16.12.12,0,0,0,.16-.09l.09-.33.07,0-.09.33A.18.18,0,0,1,132.38,30.4Zm.75.15h-.07l-.17-.38,0-.08h0a.26.26,0,0,1,0,.07l-.06.34h-.07l.09-.52h.07l.17.38a.27.27,0,0,1,0,.08h0v-.07l.07-.34h.07Zm.2,0h-.07l.06-.53h.08Zm.37,0a.27.27,0,1,1,0-.54.28.28,0,0,1,.26.28A.27.27,0,0,1,133.7,30.61Zm.73,0-.25-.33-.05-.07h0a.26.26,0,0,0,0,.07v.35h-.07l0-.53h.08l.25.33a.54.54,0,0,1,0,.08h0v-.08l0-.34h.08l0,.53Zm.49-.05-.09-.52h.08l.07.46.23,0,0,.07Zm.37-.06-.11-.52h.07l.11.52Zm.38-.09-.18.05-.14-.51.18-.05c.09,0,.16,0,.18.09a.12.12,0,0,1,0,.13h0a.13.13,0,0,1,.12.1A.16.16,0,0,1,135.67,30.4Zm.27-.07-.17-.51.29-.09,0,.06-.22.07,0,.16.18-.06,0,.06-.18.06.06.16.23-.08,0,.07Zm.66-.25-.18-.15-.1,0,.07.2-.07,0-.19-.49.15-.06.09,0a.15.15,0,0,1,.14.1.15.15,0,0,1,0,.17h0l.18.15Zm.26-.11-.2-.43-.16.08,0-.06.4-.18,0,.06-.17.07.2.42Zm.53-.28-.12-.11-.17.1,0,.16-.07,0-.09-.55.07,0,.42.37Zm.27-.16-.15.09-.28-.45.15-.09a.27.27,0,1,1,.28.45Z"/><path class="cls-1" d="M137.41,29.14l-.08.05.21.34.09-.05a.19.19,0,0,0,.06-.28A.19.19,0,0,0,137.41,29.14Z"/></g></g></svg>